<?xml version="1.0" encoding="utf-8"?>
<!-- Generator: Adobe Illustrator 19.2.1, SVG Export Plug-In . SVG Version: 6.00 Build 0)  -->
<svg version="1.1" id="certification_ico" xmlns="http://www.w3.org/2000/svg" xmlns:xlink="http://www.w3.org/1999/xlink" x="0px"
	 y="0px" viewBox="0 0 182 126" style="enable-background:new 0 0 182 126;" xml:space="preserve">
<style type="text/css">
	.st0{fill:#ECF1F5;stroke:#172D42;stroke-width:2;}
	.st1{fill:#172D42;}
	.st2{fill:#FFFFFF;stroke:#E34537;stroke-width:2;}
	.st3{opacity:0.38;fill:none;stroke:#172D42;stroke-width:2;stroke-dasharray:4,4;enable-background:new    ;}
	.st4{fill:#E34537;}
</style>
<path class="st0" d="M10,10h100v66H48L28,98V76H10V10z"/>
<path id="Rectangle_13_copy_2" class="st1" d="M19,19h37v2H19V19z M19,24h42v2H19V24z M19,29h27v2H19V29z"/>
<path id="Rectangle_12_copy" class="st2" d="M169,30L69,30v66h62l20,22V96h18V30z"/>
<path class="st3" d="M71,74h37V31"/>
<path id="Rectangle_13_copy_3" class="st4" d="M134,44h27v2h-27V44z M129,49h32v2h-32V49z M144,54h17v2h-17V54z"/>
</svg>
