<?xml version="1.0" encoding="utf-8"?>
<!-- Generator: Adobe Illustrator 19.2.1, SVG Export Plug-In . SVG Version: 6.00 Build 0)  -->
<svg version="1.1" id="certification_ico" xmlns="http://www.w3.org/2000/svg" xmlns:xlink="http://www.w3.org/1999/xlink" x="0px"
	 y="0px" viewBox="0 0 182 126" style="enable-background:new 0 0 182 126;" xml:space="preserve">
<style type="text/css">
	.st0{fill:#ECF1F5;stroke:#172D42;stroke-width:2;}
	.st1{fill:#FFFFFF;stroke:#172D42;}
	.st2{fill:none;stroke:#E34537;}
	.st3{fill:none;stroke:#E34537;stroke-width:3;}
	.st4{fill:#172D42;}
	.st5{fill:#E34537;}
</style>
<polygon class="st0" points="96,107 96,83 84,83 84,107 56,107 56,118 84,118 96,118 124,118 124,107 "/>
<rect x="21" y="8" class="st0" width="140" height="87"/>
<path id="Rectangle_9_copy_3" class="st1" d="M150.5,83.5c0,1.1-0.9,2-2,2h-116c-1.1,0-2-0.9-2-2v-63c0-1.1,0.9-2,2-2h116
	c1.1,0,2,0.9,2,2V83.5z"/>
<rect x="39.5" y="26.5" class="st2" width="36" height="50"/>
<path class="st3" d="M85,32"/>
<path class="st4" d="M86,34h37v3H86V34z"/>
<path class="st5" d="M86,45h50v2H86V45z"/>
<line class="st2" x1="39.5" y1="26.5" x2="75.5" y2="76.5"/>
<line class="st2" x1="75.5" y1="26.5" x2="39.5" y2="76.5"/>
<path class="st5" d="M86,49h33v2H86V49z"/>
<path class="st5" d="M86,53h42v2H86V53z"/>
<path class="st5" d="M86,57h37v2H86V57z"/>
<path class="st5" d="M86,61h20v2H86V61z"/>
</svg>
