<?xml version="1.0" encoding="utf-8"?>
<!-- Generator: Adobe Illustrator 19.2.1, SVG Export Plug-In . SVG Version: 6.00 Build 0)  -->
<svg version="1.1" id="Layer_1" xmlns="http://www.w3.org/2000/svg" xmlns:xlink="http://www.w3.org/1999/xlink" x="0px" y="0px"
	 viewBox="0 0 206 37" style="enable-background:new 0 0 206 37;" xml:space="preserve">
<style type="text/css">
	.st0{fill:#8396AF;}
</style>
<path class="st0" d="M15.6,13.4c-1,1.1-1.6,2.5-1.7,3.9c0,3.3,1.9,5.9,5.3,5.9c4.5,0,5.4-4.6,5.4-6.9c0-0.2,0-0.5,0-0.7l0,0
	c1.3-0.2,2.5-0.7,3.5-1.4h0c0.1,2.2,0.1,4.4,0.1,5.3c0,3.1,0.2,3.4,1.1,3.4c1,0,1.6-2.1,2.5-4.1c1.1-2.5,2.3-4.9,3-4.9
	c1.3,0-1.1,9.1,2.2,9.1c2.3,0,5.7-9.3,7.2-9.3c1.1,0-1.2,9.3,1.4,9.3c1.9,0,5-9.4,6.1-9.4c1.1,0-1.2,9.4,2.1,9.4
	c3,0,5.4-7.7,6.2-7.7c0.4,0,1.1,1,1.7,2.4v0c-0.9,1-1.5,2.2-1.7,3.5c0,1,0.7,1.8,1.7,1.8c0,0,0.1,0,0.1,0c1.4,0,2.7-1.5,2.7-3.6
	c0-1-0.2-2-0.5-3v0c2.1-1.9,4.7-3.6,6.3-3.9c-0.9,1.1-2.6,2-2.6,5c-0.1,3.1,2.4,5.6,5.4,5.7c0.1,0,0.1,0,0.2,0
	c4.4,0,5.4-4.7,5.4-6.6c0-0.6-0.1-1.2-0.2-1.8l0,0c1.5-0.7,2.6-1.7,3.1-1.7c0.9,0,0.6,2.8,0.6,5.7c0,2.2-0.3,4.4,1.3,4.4
	c1.2,0,1.8-2.4,3-4.6c1.2-2.1,2.5-5,2.9-5c0.7,0,0.4,4.4,0.4,5.3c0,1.1-0.2,4.5,2,4.5c1.5,0,4.3-4.2,4.3-4.8c0-0.3,0-0.4-0.2-0.4
	s-2,2.9-2.7,2.9c-1,0-0.4-3.7-0.4-6.4c0-1.2,0.2-3.8-1.8-3.8c-2.5,0-4.9,7.1-5.7,7.1c-0.7,0,1-6.8-2.1-6.8c-1.3,0-3.1,1.7-5.2,2.6h0
	c-0.6-1.3-1.9-2.2-3.4-2.2c-0.9,0-1.6,0.6-1.7,1.5c0.1,1.4,1.2,2.5,2.6,2.4c0,0,0.1,0,0.1,0c0.5,0,1-0.1,1.5-0.2l0,0
	c0.2,0.5,0.3,1,0.3,1.6c0,1.8-1.2,4-3.4,4c-1.8,0-3.3-1.9-3.3-4.2c0-3.8,2.3-4.4,2.3-5.1c0-0.3-0.3-0.4-0.8-0.4
	c-2.5,0-6,2.1-8.6,4.5l0,0c-0.1-0.2-0.2-0.3-0.3-0.5c-2.5-3.6-1.5-4.4-2.2-4.4c-0.8,0-4.5,10.1-5.9,10.1c-1.9,0,1.6-9.7-2.1-9.7
	c-2.9,0-4.6,7.6-5.7,7.6c-1.1,0,1.1-7.6-2.1-7.6c-2.3,0-5.6,9.1-7.1,9.1c-1.2,0,1.1-9-1.7-9c-2.7,0-4.9,7-5.6,7
	c-0.6,0-0.5-2.2-0.4-6.2l0,0c2.3-2.4,3.7-5.6,3.8-8.9c0-1.5-0.7-2.6-2.1-2.6c-2.7,0-4.3,4.3-4.3,9c0,1,0,2.3,0.1,3.7l0,0
	c-0.9,0.7-2,1.2-3.1,1.4h-0.6c-0.4-1.6-1.8-2.8-3.5-2.9c-0.9,0-1.6,0.7-1.7,1.6c0,1.1,1,2.3,4.1,2.4l0,0c0.1,0.4,0.1,0.8,0.1,1.1
	c0,1.8-1.3,4.1-3.5,4.1c-2,0-3.4-2.2-3.4-4.7c0-1.7,0.8-3.3,2.1-4.4c0-0.1,0-0.2-0.1-0.3c-2.1,0-5.5,2.3-8.7,5.6h0
	C9.2,14.1,9,10.8,8.9,7.5c0-5.5,1-6.3,1-7C9.9,0.1,9.8,0,9.3,0C8.1,0,0,3.7,0,11.8c0,6.2,3.4,9,5.6,10.7v0c-2.4,3.5-4,7.4-4,10.8
	c0,1.9,0.8,3.8,2.2,3.8c2.2,0,6.5-4.7,6.5-14.5c0-1.5-0.2-2.9-0.4-4.4v0C11.5,16.3,13.5,14.7,15.6,13.4L15.6,13.4L15.6,13.4z
	 M186.8,14.4L186.8,14.4c-0.3-0.8-0.9-1.3-1.7-1.4c-0.3,0-0.6,0.3-0.6,0.6c0,0.6,0.6,0.9,1.4,0.9C186.1,14.5,186.5,14.4,186.8,14.4
	L186.8,14.4L186.8,14.4z M116,21.8c0.4-0.6,0.8-1.2,1.3-1.7l0-0.1c-0.6-2.5-0.9-5.1-1.1-7.7c0-5.8,2.5-10,2.5-10.9
	c0-0.6,0.1-0.7-0.3-0.7c-0.3,0-6.1,2.5-6.1,11.2C112.3,15.5,113.9,19.8,116,21.8L116,21.8L116,21.8z M115.5,22.5
	c-0.8-0.6-1.6-1.7-2.7-2.5c-1-0.7-3.5,0.1-5.8,0.5l0,0c-0.2,1.3-0.6,2.6-1.1,2.6c-0.3,0-0.4-1-0.8-2.2l0,0c-0.8,0.2-1.6,0.3-2.3,0.3
	c-1.5,0-5.1-0.7-5.1-3c0-1.3,1.5-1.8,2.9-1.8c1.6,0,4.2,1.1,4.8,2.4c0.2-2.2-1.4-3.5-1.4-3.8s1.7-1,1.9-1c0.7,0,1.3,3.2,1.3,5.4
	c0,0.1,0,0.2,0,0.3l0,0c1.6-0.4,3.2-0.6,4.9-0.6c-1.4-2.1-2.1-4.6-2.1-7.2c0-8.1,8-11.8,9.3-11.8c0.6,0,0.7,0.1,0.7,0.5
	c0,0.7-1,1.4-1,7c0,3.3,0.3,6.6,0.8,9.9l0,0c3.2-3.3,6.6-5.6,8.7-5.6c0.1,0.1,0.1,0.2,0.1,0.3c-1.3,1.1-2.1,2.7-2.1,4.4
	c0,2.5,1.5,4.7,3.5,4.7c2.2,0,3.5-2.4,3.5-4.1c0-0.4,0-0.8-0.1-1.1v0c-3.1-0.1-4.1-1.2-4.1-2.4c0.1-0.9,0.8-1.6,1.7-1.6
	c1.7,0.1,3.1,1.3,3.5,2.9h0.6c1.1-0.2,2.2-0.7,3.1-1.4l0,0c0-1.4-0.1-2.7-0.1-3.7c0-4.7,1.6-9,4.3-9c1.4,0,2.1,1.2,2.1,2.6
	c-0.1,3.3-1.5,6.5-3.8,8.9l0,0c0,4-0.1,6.2,0.4,6.2c0.7,0,2.8-7,5.6-7c2.9,0,0.5,9,1.7,9c1.5,0,4.8-9.1,7.1-9.1c3.1,0,1,7.6,2.1,7.6
	c1.1,0,2.8-7.6,5.7-7.6c3.7,0,0.2,9.7,2.1,9.7c1.4,0,5.1-10.1,5.9-10.1c0.7,0-0.3,0.8,2.2,4.4c0.1,0.1,0.2,0.3,0.3,0.5l0,0
	c2.6-2.4,6.1-4.5,8.6-4.5c0.5,0,0.7,0.1,0.7,0.4c0,0.8-2.3,1.4-2.3,5.1c0,2.3,1.6,4.2,3.3,4.2c2.3,0,3.4-2.3,3.4-4
	c0-0.5-0.1-1.1-0.3-1.6l0,0c-0.5,0.1-1,0.2-1.5,0.2c-1.4,0.1-2.6-0.9-2.7-2.3c0,0,0-0.1,0-0.1c0.1-0.9,0.8-1.5,1.7-1.5
	c1.5,0,2.8,0.9,3.4,2.2h0c2-0.9,3.9-2.6,5.2-2.6c3.1,0,1.3,6.8,2.1,6.8c0.8,0,3.2-7.1,5.7-7.1c2,0,1.8,2.6,1.8,3.8
	c0,2.7-0.6,6.4,0.4,6.4c0.7,0,2.4-2.9,2.7-2.9s0.3,0.1,0.3,0.4c0,0.6-2.8,4.8-4.4,4.8c-2.2,0-2-3.4-2-4.5c0-0.9,0.3-5.3-0.4-5.3
	c-0.5,0-1.8,2.9-2.9,5c-1.2,2.1-1.8,4.6-3,4.6c-1.6,0-1.3-2.2-1.3-4.4c0-2.9,0.4-5.7-0.6-5.7c-0.4,0-1.6,1-3,1.7v0
	c0.2,0.6,0.2,1.2,0.2,1.8c0,1.9-0.9,6.6-5.4,6.6c-3.1,0-5.6-2.5-5.6-5.5c0-0.1,0-0.1,0-0.2c0-3,1.7-3.9,2.6-5
	c-1.6,0.3-4.3,1.9-6.4,3.9l0,0c0.4,1,0.5,2,0.5,3c0,2.1-1.3,3.6-2.7,3.6c-1,0.1-1.8-0.7-1.8-1.6c0,0,0-0.1,0-0.1
	c0.2-1.3,0.8-2.5,1.7-3.5v0c-0.5-1.4-1.3-2.5-1.7-2.5c-0.8,0-3.2,7.7-6.2,7.7c-3.3,0-1-9.4-2.1-9.4c-1.1,0-4.3,9.4-6.1,9.4
	c-2.6,0-0.3-9.3-1.4-9.3c-1.5,0-4.9,9.3-7.2,9.3c-3.2,0-0.8-9.1-2.2-9.1c-0.7,0-1.9,2.5-3,4.9c-0.9,2-1.5,4.1-2.5,4.1
	c-1,0-1.1-0.4-1.1-3.4c0-1-0.1-3.1-0.1-5.3v0c-1.1,0.7-2.3,1.2-3.5,1.4l0,0c0,0.2,0,0.5,0,0.7c0,2.2-0.9,6.9-5.4,6.9
	c-3.4,0-5.3-2.6-5.3-5.9c0-1.5,0.6-2.9,1.7-3.9c-2.1,1.3-4,2.9-5.7,4.8l0,0c0.2,1.4,0.3,2.9,0.4,4.4c0,9.7-4.2,14.5-6.5,14.5
	c-1.4,0-2.2-1.9-2.2-3.8C111.5,29.8,113.2,26,115.5,22.5L115.5,22.5L115.5,22.5z M171.9,18.8L171.9,18.8c-0.5,0.6-0.8,1.4-0.9,2.2
	c0,0.7,0.1,1.1,0.5,1.1c0.5-0.1,0.8-0.6,0.7-1.1C172.2,20.2,172.1,19.5,171.9,18.8L171.9,18.8L171.9,18.8z M140.4,10.8L140.4,10.8
	c1.6-2,2.5-4.5,2.5-7.1c0-1.4-0.1-2.2-0.8-2.2C140.2,1.5,140.4,8.4,140.4,10.8L140.4,10.8L140.4,10.8z M132.8,14.6L132.8,14.6
	c-0.2-0.8-0.9-1.4-1.7-1.5c-0.3,0-0.5,0.1-0.5,0.4c0,0,0,0,0,0.1C130.6,14.3,131.7,14.6,132.8,14.6L132.8,14.6L132.8,14.6z
	 M117.4,20.9L117.4,20.9c-2.5,3.3-4.4,7.2-4.4,10.9c0,1.2,0,3,1.7,3c2.1,0,3.5-3.1,3.5-7.4C118.1,25.3,117.9,23.1,117.4,20.9
	L117.4,20.9L117.4,20.9z M104.9,19.9L104.9,19.9c-0.5-1.6-1.9-2.7-3.6-2.8c-0.5,0-0.9,0.5-0.9,1c0,0,0,0,0,0.1
	c0,1.1,1.7,1.8,3.3,1.8C104.1,20,104.5,20,104.9,19.9L104.9,19.9L104.9,19.9z M76.8,14.4c-0.3,0.1-0.6,0.1-0.9,0.1
	c-0.9,0-1.4-0.4-1.4-0.9c0-0.3,0.3-0.6,0.6-0.6C75.9,13.1,76.6,13.6,76.8,14.4L76.8,14.4L76.8,14.4L76.8,14.4z M62,18.8
	c0.2,0.7,0.3,1.5,0.3,2.2c0.1,0.5-0.2,1-0.7,1.1c-0.4,0-0.5-0.4-0.5-1.1C61.1,20.2,61.4,19.4,62,18.8L62,18.8L62,18.8z M30.5,10.8
	c0-2.4-0.2-9.3,1.6-9.3c0.7,0,0.8,0.8,0.8,2.2C33,6.3,32.1,8.8,30.5,10.8L30.5,10.8L30.5,10.8z M22.9,14.6c-1.1-0.1-2.2-0.3-2.2-1
	c0-0.3,0.2-0.5,0.5-0.5c0,0,0,0,0.1,0C22,13.3,22.7,13.9,22.9,14.6L22.9,14.6L22.9,14.6L22.9,14.6z M7.4,20
	c-0.4,0.6-0.9,1.1-1.3,1.7l0,0c-2-2-3.7-6.3-3.7-9.8c0-8.7,5.8-11.2,6.1-11.2c0.4,0,0.3,0.1,0.3,0.7c0,0.9-2.5,5-2.5,10.9
	C6.4,14.9,6.8,17.5,7.4,20L7.4,20L7.4,20L7.4,20z M7.5,20.9c0.4,2.2,0.7,4.3,0.8,6.6c0,4.3-1.4,7.4-3.5,7.4c-1.7,0-1.7-1.8-1.7-3
	C3.1,28.1,5,24.2,7.5,20.9L7.5,20.9L7.5,20.9z"/>
</svg>
