<?xml version="1.0" encoding="utf-8"?>
<!-- Generator: Adobe Illustrator 19.2.1, SVG Export Plug-In . SVG Version: 6.00 Build 0)  -->
<svg version="1.1" id="Layer_1" xmlns="http://www.w3.org/2000/svg" xmlns:xlink="http://www.w3.org/1999/xlink" x="0px" y="0px"
	 viewBox="0 0 122 47.9" style="enable-background:new 0 0 122 47.9;" xml:space="preserve">
<style type="text/css">
	.st0{fill:#8396AF;}
</style>
<path class="st0" d="M23,26.3l-4.2-15.5h-3.3l-4.1,15.5L7.2,10.8H3.9l5.8,21.3H13l4.1-15.5l4.1,15.5h3.4l5.8-21.3h-3.3L23,26.3z
	 M40.8,32.1h3.3v-9.3c0-4.7-1.8-5.9-4.5-5.9c-1.5,0-2.9,0.3-4.3,0.9h-0.1l0.1-2v-5.2L32,10.9v21.2h3.3V20.3c0.9-0.3,1.7-0.4,2.6-0.5
	c1.5,0,2.9,0.4,2.9,3.2V32.1L40.8,32.1z M47,32.1h3.3v-15H47V32.1z M48.7,15.4c1.6,0,2-1,2-2.2s-0.3-2.1-2-2.1s-2,1-2,2.1
	S47.1,15.4,48.7,15.4L48.7,15.4z M56.5,20.7c0.8-0.4,1.6-0.6,2.5-0.6c0.6,0,1.3,0.1,1.9,0.2V17c-0.2,0-0.5,0-0.7,0
	c-1.5,0-2.9,0.5-4.1,1.4h-0.2l-0.5-1.2h-2.3v15h3.3L56.5,20.7L56.5,20.7z M65.7,10.6l-3.3,0.3v21.2h3.3V10.6z M104.2,16.9
	c-4.7,0-6.7,2.8-6.7,7.8c0,4.7,1.7,7.7,6.6,7.7s6.6-3.1,6.6-7.7C110.8,19.7,109,16.9,104.2,16.9L104.2,16.9z M104.1,29.7
	c-2.7,0-3.2-2.4-3.2-5.1c0-2.9,0.7-5.2,3.4-5.2c2.7,0,3.1,2.3,3.1,5.2S106.8,29.7,104.1,29.7L104.1,29.7z M113,32.1h3.3V10.6
	l-3.3,0.3V32.1L113,32.1z M90.1,0.8c-2.8-3-13.1,2.7-23.7,11.5v1.1C76.8,4.7,86.5-0.4,88.8,2c1.1,1.2,0.1,5.1-2.4,9.5
	c-0.5,0.3-0.9,0.6-1.2,1.1c-1.5,2.1-3.3,4.5-5.3,6.9c-0.8-1.6-2.4-2.6-4.2-2.5c-1.5,0.1-3,0.5-4.4,1.3h-0.2l-0.3-1.1h-2.5v14.1
	C56.2,42.1,45,48.4,42.6,45.9c-1.5-1.6,1-6.8,5.5-13h-1.2c-4.8,6.6-7.4,12.3-5.5,14.3c2.9,3.1,15-3.3,27.1-13.6c0,0,0,0-0.1,0v5.6
	l3.3-0.4V32h0.1c1,0.2,1.9,0.3,2.9,0.3c3.9,0,6.2-2.6,6.2-7.9c0-0.9-0.1-1.8-0.2-2.7c-0.2,0.2-0.4,0.5-0.7,0.7
	c2.5-2.6,4.8-5.4,6.8-8.4c0.8-1.3,0.9-2.1,0.5-2.6C90.6,6.5,91.8,2.5,90.1,0.8L90.1,0.8z M71.6,28.3c0.1-3.2,0.1-4.8,0.1-7.7
	c0.8-0.3,1.6-0.4,2.5-0.4c1.7,0,2.8,0.5,3.2,2.2c-1.8,2-3.6,3.9-5.6,5.8C71.7,28.1,71.6,28.2,71.6,28.3L71.6,28.3z M77.5,25.1
	c-0.2,3.4-1.5,4.3-3.4,4.3c-0.4,0-0.7,0-1,0l0,0c0.1-0.1,0.1-0.1,0.2-0.2C74.8,27.8,76.2,26.4,77.5,25.1L77.5,25.1z M33.9,5.9
	c0.3-0.2,0.6-0.4,0.9-0.7C35,5,35.1,4.8,35.2,4.5c0.1-0.2,0-0.5-0.1-0.7c-0.1-0.3-0.3-0.5-0.6-0.7c-0.3-0.3-0.7-0.5-1.1-0.7
	c-0.5-0.2-1-0.5-1.5-0.6c-0.6-0.2-1.2-0.4-1.9-0.6s-1.5-0.3-2.3-0.5S26,0.5,25.1,0.3s-1.9-0.2-2.9-0.2s-2-0.1-3-0.1s-2.1,0-3.1,0
	s-2,0.1-3,0.2s-2,0.2-2.9,0.3S8.3,0.7,7.4,0.9S5.8,1.3,5,1.5C4.4,1.6,3.7,1.9,3,2.1C2.5,2.3,2,2.6,1.5,2.9c-0.4,0.2-0.7,0.5-1,0.8
	C0.3,3.9,0.1,4.2,0,4.5c0,0.3,0,0.6,0.1,0.9C0.3,5.7,0.6,6,0.8,6.2C1.2,6.5,1.6,6.8,2.1,7C2.7,7.3,3.3,7.6,4,7.8
	C4.7,8,5.5,8.3,6.3,8.5S8.1,8.9,9.1,9s2,0.3,3.1,0.4s2.2,0.2,3.4,0.3h0.5c0.2,0,0.3,0,0.4-0.1s0.2-0.2,0.3-0.3
	c0-0.2-0.1-0.3-0.2-0.3c-0.1-0.1-0.3-0.1-0.4-0.1c-0.6,0-1.2-0.1-1.8-0.1c-0.7-0.1-1.5-0.1-2.2-0.2s-1.4-0.2-2-0.3S9,8,8.4,7.8
	C8,7.7,7.5,7.6,7.1,7.4C6.2,7.2,5.4,6.8,4.6,6.3C4.3,6.1,4.1,5.9,3.9,5.7C3.7,5.5,3.6,5.3,3.6,5.1c-0.1-0.2-0.1-0.4,0-0.6
	c0-0.2,0.1-0.4,0.2-0.5C4,3.7,4.2,3.6,4.4,3.4C4.7,3.2,5,3,5.3,2.9C5.6,2.7,6,2.6,6.4,2.4c0.2-0.1,0.5-0.2,0.7-0.2
	c0.5-0.1,1-0.3,1.5-0.4c0.3-0.1,0.6-0.1,0.9-0.2c0.5-0.1,1.1-0.2,1.7-0.3s1.2-0.2,1.9-0.2S14.4,1,15,1s1.3-0.1,2-0.1s1.3,0,2,0
	s1.3,0,2,0.1s1.3,0,1.9,0s1.2,0.1,1.8,0.2s1.1,0.2,1.6,0.3c0.9,0.2,1.8,0.4,2.7,0.7c0.6,0.2,1.3,0.5,1.8,0.8
	c0.4,0.2,0.7,0.5,0.8,0.9c0.1,0.3,0,0.7-0.2,0.9c-0.3,0.4-0.7,0.7-1.1,0.9c-0.6,0.3-1.3,0.5-2,0.7c-0.5,0.1-1.1,0.3-1.7,0.4
	C26.9,6.7,27,6.6,27,6.4C27,6.2,26.9,6,26.7,6c-0.4-0.1-0.8-0.1-1.2,0.1c-0.2,0.1-0.4,0.1-0.5,0.2c-0.4,0.1-0.8,0.2-1.2,0.3
	s-0.9,0.2-1.3,0.2s-1,0.1-1.5,0.1S20,7,19.6,7c-0.1,0-0.3,0-0.4,0c-0.4,0-0.9,0-1.3,0c-0.6,0-1.2-0.1-1.8-0.1S15,6.7,14.5,6.7
	s-1-0.1-1.5-0.2s-0.9-0.2-1.2-0.3c-0.3-0.1-0.7-0.2-0.9-0.3c-0.1-0.1-0.3-0.1-0.4-0.1c-0.1,0-0.3,0-0.4,0.2c-0.1,0.1,0,0.3,0.1,0.4
	s0.2,0.2,0.4,0.2c0.1,0,0.1,0,0.2,0.1c0.3,0.1,0.6,0.2,1,0.3c0.4,0.1,0.8,0.2,1.2,0.3s0.9,0.2,1.3,0.2s0.9,0.1,1.4,0.2
	s1,0.1,1.5,0.1s1,0.1,1.6,0.1s1.1,0,1.6,0s1.1,0,1.6-0.1c0.4,0,0.8-0.1,1.1-0.1h0.3c0,0.2,0.2,0.3,0.4,0.4c0.2,0.1,0.4,0.1,0.6,0.1
	C25,8,25.8,8,26.6,7.9s1.5-0.2,2.2-0.4s1.4-0.3,2-0.4s1.1-0.3,1.7-0.5C33,6.3,33.4,6.1,33.9,5.9L33.9,5.9z M19.5,4.6
	c-0.1-0.1-0.2-0.2-0.3-0.3c-0.2-0.1-0.3-0.1-0.5-0.2C18.5,4.1,18.3,4,18,4c-0.2,0-0.4-0.1-0.7-0.1c-0.2,0-0.3,0-0.5,0s-0.3,0-0.5,0
	C16.2,4,16,4,15.7,4c-0.2,0-0.4,0.1-0.6,0.1c-0.2,0.1-0.4,0.1-0.5,0.2s-0.2,0.1-0.3,0.3c-0.1,0.1-0.1,0.2,0,0.3
	c0.1,0.1,0.2,0.2,0.3,0.3c0.2,0.1,0.4,0.2,0.6,0.3c0.3,0.1,0.7,0.2,1,0.2c0.4,0.1,0.8,0.1,1.3,0.2c0.2,0,0.5,0,0.7,0.1s0.5,0,0.8,0
	h0.2c0.2,0,0.5,0,0.7,0c0.3,0,0.6,0,0.9,0c0.6,0,1.2-0.1,1.7-0.2s1-0.2,1.5-0.3c0.3-0.1,0.6-0.3,1-0.5c0.3-0.1,0.5-0.3,0.7-0.5
	c0.1-0.1,0.1-0.2,0.1-0.3c0-0.1,0-0.2-0.1-0.2c-0.1-0.2-0.3-0.4-0.6-0.6c-0.4-0.2-0.8-0.4-1.2-0.5c-0.6-0.2-1.2-0.3-1.8-0.4
	c-0.7-0.1-1.4-0.2-2.2-0.3C19.1,2.1,18.3,2,17.4,2h-0.3C14.6,1.9,12,2.4,9.6,3.4C9.5,3.5,9.3,3.6,9.2,3.7C9,3.8,9,3.9,9,4.1
	c0.1,0.1,0.3,0.2,0.5,0.2s0.3,0,0.5-0.1c2.3-0.8,4.7-1.3,7.2-1.2h0.1c0.3,0,0.6,0,0.9,0s0.6,0,0.8,0.1s0.5,0.1,0.7,0.1
	s0.4,0.1,0.6,0.1s0.3,0.1,0.5,0.2c0.1,0.1,0.3,0.1,0.4,0.2c0.1,0.1,0.2,0.1,0.3,0.2C21.6,4,21.6,4,21.6,4.1c0,0.1,0,0.1,0,0.2
	s-0.1,0.1-0.1,0.2c-0.1,0.1-0.1,0.1-0.2,0.2S21.1,4.8,21,4.8c-0.1,0-0.2,0.1-0.4,0.1c-0.1,0-0.3,0.1-0.4,0.1l-0.4,0.1h-0.1
	c-0.1,0-0.1,0-0.2,0c0-0.1,0-0.1,0.1-0.2C19.6,4.8,19.6,4.7,19.5,4.6L19.5,4.6z M89.3,16.9c4.7,0,6.5,2.8,6.5,7.8
	c0,4.7-1.7,7.7-6.6,7.7s-6.6-3.1-6.6-7.7C82.6,19.7,84.6,16.9,89.3,16.9L89.3,16.9z M92.5,24.7c0-2.8-0.5-5.2-3.1-5.2
	c-2.7,0-3.4,2.2-3.4,5.2c0,2.7,0.5,5.1,3.2,5.1S92.5,27.5,92.5,24.7L92.5,24.7z M90.1,0.8c-2.8-3-13.1,2.7-23.7,11.5v1.1
	C76.8,4.7,86.5-0.4,88.8,2c1.1,1.2,0.1,5.1-2.4,9.5c-0.5,0.3-0.9,0.6-1.2,1.1c-3.9,5.6-8.4,10.8-13.4,15.5
	C58.3,40.9,45.3,48.7,42.6,45.9c-1.5-1.6,1-6.8,5.5-13h-1.2c-4.8,6.6-7.4,12.3-5.5,14.3c3.3,3.6,18.4-5.1,31.9-17.9
	c6.1-5.8,10.7-10.7,13.6-15.1c0.8-1.3,0.9-2.1,0.5-2.6C90.6,6.5,91.8,2.5,90.1,0.8L90.1,0.8z M71.7,20.6c0.8-0.3,1.6-0.4,2.5-0.4
	c1.7,0,2.8,0.5,3.2,2.2c0.9-1,1.7-1.9,2.5-2.9c-0.8-1.6-2.4-2.6-4.2-2.5c-1.5,0.1-3,0.5-4.4,1.3h-0.2l-0.3-1.1h-2.5v14.1
	c1.1-0.9,2.1-1.9,3.2-2.9C71.7,25.1,71.7,23.5,71.7,20.6L71.7,20.6z M26.7,6.9C26.9,6.7,27,6.6,27,6.4C27,6.2,26.9,6,26.7,6
	c-0.4-0.1-0.8-0.1-1.2,0.1c-0.2,0.1-0.4,0.1-0.5,0.2c-0.4,0.1-0.8,0.2-1.2,0.3s-0.9,0.2-1.3,0.2s-1,0.1-1.5,0.1S20,7,19.6,7
	c-0.1,0-0.3,0-0.4,0c-0.4,0-0.9,0-1.3,0c-0.6,0-1.2-0.1-1.8-0.1S15,6.8,14.5,6.7s-1-0.1-1.5-0.2s-0.9-0.2-1.2-0.3
	c-0.3-0.1-0.7-0.2-0.9-0.3c-0.1-0.1-0.3-0.1-0.4-0.1c-0.1,0-0.3,0-0.4,0.2c-0.1,0.1,0,0.3,0.1,0.4s0.2,0.2,0.4,0.2
	c0.1,0,0.1,0,0.2,0.1c0.3,0.1,0.6,0.2,1,0.3c0.4,0.1,0.8,0.2,1.2,0.3s0.9,0.2,1.3,0.2s0.9,0.1,1.4,0.2s1,0.1,1.5,0.1s1,0.1,1.6,0.1
	s1.1,0,1.6,0s1.1,0,1.6-0.1c0.4,0,0.8-0.1,1.1-0.1h0.3c0,0.2,0.2,0.3,0.4,0.4c0.2,0.1,0.4,0.1,0.6,0.1C25.1,8,25.9,8,26.6,7.9
	s1.5-0.2,2.2-0.4s1.4-0.3,2-0.4s1.1-0.3,1.7-0.5c0.4-0.2,0.9-0.4,1.3-0.6c0.3-0.2,0.6-0.4,0.9-0.7c0.2-0.2,0.3-0.4,0.4-0.7
	c0.1-0.2,0-0.5-0.1-0.7c-0.1-0.3-0.3-0.5-0.6-0.7c-0.3-0.3-0.7-0.5-1.1-0.7c-0.5-0.2-1-0.5-1.5-0.6c-0.6-0.2-1.2-0.4-1.9-0.6
	c-0.7-0.2-1.5-0.3-2.3-0.5S26,0.5,25.1,0.3s-1.9-0.2-2.9-0.2s-2-0.1-3-0.1s-2.1,0-3.1,0s-2,0.1-3,0.2s-2,0.2-2.9,0.3
	S8.3,0.7,7.4,0.9S5.8,1.3,5,1.5C4.4,1.6,3.7,1.9,3,2.1C2.5,2.3,2,2.6,1.5,2.9c-0.4,0.2-0.7,0.5-1,0.8C0.3,3.9,0.1,4.2,0,4.5
	c0,0.3,0,0.6,0.1,0.9C0.3,5.7,0.5,6,0.8,6.2C1.2,6.5,1.6,6.8,2.1,7C2.7,7.3,3.3,7.6,4,7.8C4.7,8,5.5,8.3,6.3,8.5S8.1,8.9,9.1,9
	s2,0.3,3.1,0.4s2.2,0.2,3.4,0.3h0.5c0.2,0,0.3,0,0.4-0.1s0.2-0.2,0.3-0.3c0-0.2-0.1-0.3-0.2-0.3c-0.1-0.1-0.3-0.1-0.4-0.1
	c-0.6,0-1.2-0.1-1.8-0.1c-0.7-0.1-1.5-0.1-2.2-0.2s-1.4-0.2-2-0.3S9,8,8.4,7.8C8,7.7,7.5,7.6,7.1,7.4C6.2,7.2,5.3,6.8,4.5,6.3
	C4.3,6.1,4.1,5.9,3.9,5.7C3.7,5.5,3.6,5.3,3.6,5.1c-0.1-0.2-0.1-0.4,0-0.6s0.2-0.4,0.3-0.6C4,3.7,4.2,3.6,4.4,3.4
	C4.7,3.2,5,3,5.3,2.9C5.6,2.7,6,2.6,6.4,2.4c0.2-0.1,0.5-0.2,0.7-0.2c0.5-0.1,1-0.3,1.5-0.4c0.3-0.1,0.6-0.1,0.9-0.2
	c0.5-0.1,1.1-0.2,1.7-0.3s1.2-0.2,1.9-0.2S14.4,1,15,1s1.3-0.1,2-0.1s1.3,0,2,0s1.3,0,2,0.1s1.3,0,1.9,0s1.2,0.1,1.8,0.2
	s1.1,0.2,1.6,0.3c0.9,0.2,1.8,0.4,2.7,0.7c0.6,0.2,1.3,0.5,1.8,0.8c0.4,0.2,0.7,0.5,0.8,0.9c0.1,0.3,0,0.7-0.2,0.9
	c-0.3,0.4-0.7,0.7-1.1,0.9c-0.6,0.3-1.3,0.5-2,0.7C27.9,6.6,27.3,6.7,26.7,6.9L26.7,6.9z M78.2,37.9h-0.6v-1.3h-1.1v1.3h-0.6V35h0.6
	v1.2h1.1V35h0.6V37.9L78.2,37.9z M79,36.3c0.1-0.8,0.8-1.4,1.5-1.3c0.7,0.1,1.3,0.9,1.2,1.7C81.6,37.4,81,38,80.3,38
	c-0.7,0.1-1.3-0.5-1.4-1.3C78.9,36.5,78.9,36.4,79,36.3L79,36.3z M81,36.5c0-0.8-0.3-1-0.7-1s-0.7,0.3-0.7,1s0.3,1,0.7,1
	S81,37.2,81,36.5L81,36.5z M82.5,35h0.7l0.9,2.2l0,0l0.8-2.2h0.7l0.2,2.9h-0.6L85.1,36l0,0L85,36.2l-0.7,1.7h-0.6l-0.6-1.7L83,36
	l0,0l-0.1,1.9h-0.6L82.5,35z M86.5,35h1.8v0.5h-1.2v0.6h1.1v0.5h-1.1v0.7h1.2v0.5h-1.9L86.5,35L86.5,35z M89.7,37.9l1-2.9h0.6
	l1.1,2.9V38h-0.7l-0.2-0.7h-0.9L90.4,38L89.7,37.9L89.7,37.9L89.7,37.9z M91.4,36.8l-0.3-1v-0.2l0,0v0.2l-0.3,1H91.4L91.4,36.8z
	 M93.1,35h0.8c0.9,0,1.3,0.2,1.3,0.9c0,0.5-0.4,1-0.9,1c-0.1,0-0.2,0-0.2,0h-0.3v1h-0.6L93.1,35L93.1,35z M93.7,36.5H94
	c0.2,0.1,0.5-0.1,0.5-0.3c0-0.1,0-0.1,0-0.2c0-0.2-0.1-0.5-0.4-0.5c-0.1,0-0.1,0-0.2,0h-0.3L93.7,36.5L93.7,36.5z M95.7,35h0.8
	c0.9,0,1.3,0.2,1.3,0.9c0,0.5-0.4,1-0.9,1c-0.1,0-0.2,0-0.2,0h-0.3v1h-0.6L95.7,35L95.7,35z M96.4,36.5h0.2c0.2,0.1,0.5-0.1,0.5-0.3
	c0-0.1,0-0.1,0-0.2c0-0.2-0.1-0.5-0.4-0.5c-0.1,0-0.1,0-0.2,0h-0.3L96.4,36.5L96.4,36.5z M98.4,35H99v2.4h1.2v0.5h-1.9L98.4,35
	L98.4,35z M101,37.9V35h0.6v2.9H101z M102.3,37.9l1-2.9h0.6l1.1,2.9V38h-0.7l-0.2-0.7h-0.9L103,38L102.3,37.9L102.3,37.9L102.3,37.9
	z M104,36.8l-0.3-1v-0.2l0,0v0.2l-0.3,1H104L104,36.8z M105.7,35h0.5l1.1,1.5l0.1,0.2l0,0V35h0.6v2.9h-0.5l-1.1-1.6l-0.1-0.2l0,0
	v1.8h-0.6V35L105.7,35z M111.1,37.9c-0.2,0.1-0.5,0.1-0.8,0.1c-0.7,0.1-1.4-0.4-1.5-1.1c0-0.1,0-0.3,0-0.4c-0.1-0.8,0.5-1.5,1.3-1.5
	c0.1,0,0.2,0,0.3,0c0.2,0,0.4,0,0.6,0.1v0.5c-0.2,0-0.4-0.1-0.6-0.1c-0.5,0-0.9,0.5-0.9,1s0.4,0.9,0.9,0.9c0.2,0,0.5,0,0.7-0.1V37.9
	L111.1,37.9z M111.8,35h1.8v0.5h-1.2v0.6h1.1v0.5h-1.1v0.7h1.2v0.5h-1.9L111.8,35L111.8,35z M114.4,37.4c0.3,0.1,0.6,0.1,0.9,0.1
	c0.4,0,0.6-0.1,0.6-0.3c0-0.6-1.5-0.5-1.5-1.4c0-0.7,0.5-0.9,1.2-0.9c0.2,0,0.5,0,0.7,0.1v0.5c-0.3-0.1-0.5-0.1-0.8-0.1
	c-0.4,0-0.6,0.1-0.6,0.3c0,0.5,1.5,0.4,1.5,1.5c0,0.7-0.5,0.8-1.2,0.8c-0.3,0-0.6,0-0.8-0.1L114.4,37.4L114.4,37.4z"/>
</svg>
