<?xml version="1.0" encoding="utf-8"?>
<!-- Generator: Adobe Illustrator 19.2.1, SVG Export Plug-In . SVG Version: 6.00 Build 0)  -->
<svg version="1.1" id="Layer_1" xmlns="http://www.w3.org/2000/svg" xmlns:xlink="http://www.w3.org/1999/xlink" x="0px" y="0px"
	 viewBox="0 0 121 31" style="enable-background:new 0 0 121 31;" xml:space="preserve">
<style type="text/css">
	.st0{fill:#8396AF;}
</style>
<g>
	<path class="st0" d="M35.5,8c-7.7,0-11.8,5.1-11.8,11.5S27.8,31,35.5,31s11.8-5.1,11.8-11.5S43.2,8,35.5,8z M35.5,25.6
		c-3.5,0-5.3-2.7-5.3-6s1.9-6,5.3-6c3.5,0,5.4,2.7,5.4,6S39,25.6,35.5,25.6z"/>
	<polygon class="st0" points="25,0.9 16.5,0.9 7,12.9 7,0.9 0,0.9 0,0.9 0,30.4 7,30.4 7,17.3 16.4,30.4 25.6,30.4 14.1,14.7 	"/>
	<path class="st0" d="M86,7.9c-2.6-0.1-5.2,0.3-7.7,1.1v5.1c2-0.9,4.3-1.3,6.5-1.2c3.2,0,5,0.8,5,3.4h-5c-6.2,0-10.1,1.4-10.1,6.9
		l0,0c0,4.9,3.9,7.8,10.7,7.8c6.3,0,10.4-3.5,10.4-8v-6.4C95.8,10.5,92.3,7.9,86,7.9z M89.8,22.8c0,1.5-1.8,2.7-4.5,2.7
		c-2.9,0-4.6-0.9-4.6-2.7c0-1.8,1.5-2.4,4.2-2.4h4.8V22.8z"/>
	<polygon class="st0" points="112,19.1 120.3,8.7 112.6,8.7 105.7,17.5 105.7,0 98.7,0 98.7,0 98.7,30.4 105.7,30.4 105.7,21.7 
		112.5,30.4 121,30.4 	"/>
	<path class="st0" d="M66,9.4C64.5,8.5,62.7,8,61,8h0c-7.6,0-11.7,5.1-11.7,11.5S53.3,31,61,31s11.7-5.1,11.7-11.5V0H66V9.4z
		 M61,25.6c-3.5,0-5.3-2.7-5.3-6s1.9-6,5.3-6c3.5,0,5.3,2.7,5.3,6S64.5,25.6,61,25.6z"/>
</g>
</svg>
