<?xml version="1.0" encoding="utf-8"?>
<!-- Generator: Adobe Illustrator 19.2.1, SVG Export Plug-In . SVG Version: 6.00 Build 0)  -->
<svg version="1.1" id="Layer_1" xmlns="http://www.w3.org/2000/svg" xmlns:xlink="http://www.w3.org/1999/xlink" x="0px" y="0px"
	 viewBox="0 0 166 37" style="enable-background:new 0 0 166 37;" xml:space="preserve">
<style type="text/css">
	.st0{fill:#8396AF;}
</style>
<path class="st0" d="M166,9.5c0,1-0.8,1.9-1.8,1.9c-1,0-1.9-0.8-1.9-1.8c0-1,0.8-1.9,1.8-1.9c0,0,0,0,0.1,0
	C165.1,7.6,166,8.4,166,9.5C166,9.4,166,9.5,166,9.5z M162.7,9.5c0,0.8,0.7,1.4,1.5,1.3c0.8,0,1.4-0.7,1.3-1.5
	c0-0.7-0.6-1.3-1.4-1.3C163.4,8,162.7,8.6,162.7,9.5C162.7,9.4,162.7,9.4,162.7,9.5z M163.8,10.4h-0.4V8.6c0.4-0.1,0.9-0.1,1.3,0.1
	c0.2,0.2,0.2,0.4,0.1,0.6c-0.1,0.1-0.2,0.2-0.3,0.2v0c0.3,0.2,0.4,0.6,0.5,0.9h-0.5c-0.1-0.1-0.1-0.3-0.1-0.4
	c-0.1-0.3-0.3-0.3-0.6-0.3V10.4z M163.9,9.4h0.2c0.2,0,0.4-0.1,0.4-0.2c0,0,0,0,0,0c0-0.2-0.1-0.3-0.4-0.3c-0.1,0-0.2,0-0.2,0V9.4z
	 M12.9,4.1C5.8,4.1-0.1,9.8-0.1,17c0,7.1,5.8,12.9,12.9,13c7.1,0,12.9-5.8,13-12.9c0,0,0,0,0,0C25.8,9.9,20,4.1,12.9,4.1L12.9,4.1z
	 M12.9,28.2C6.7,28.2,1.7,23.1,1.8,16.9C1.8,10.7,6.9,5.7,13.1,5.8c6.2,0.1,11.1,5.1,11.1,11.2C24.2,23.2,19.1,28.3,12.9,28.2
	C12.9,28.2,12.9,28.2,12.9,28.2L12.9,28.2z M62.8,7.8H48.1L37.9,21.2h15.3c1.9,0,3.8-0.9,4.9-2.4l1.4-1.9c0.5-0.6,0.4-1.4-0.2-1.9
	l-0.1-0.1c1.4-0.3,2.6-1.1,3.4-2.2l1.4-1.9c0.6-0.8,0.5-1.9-0.3-2.5C63.5,8,63.1,7.8,62.8,7.8L62.8,7.8z M52.5,16.5l-1,1.4
	c-0.3,0.3-0.6,0.5-1.1,0.5h-3.1l2-2.6h2.9c0.2,0,0.4,0.2,0.4,0.4C52.6,16.4,52.5,16.4,52.5,16.5L52.5,16.5z M56.4,11.4l-0.8,1.1
	c-0.3,0.4-0.7,0.6-1.2,0.6h-3l1.8-2.4H56c0.3,0,0.5,0.2,0.5,0.5C56.5,11.2,56.4,11.3,56.4,11.4L56.4,11.4z M85,7.8H73.3
	c-2,0-3.8,0.9-5,2.5l-6,8c-0.6,0.8-0.5,1.9,0.3,2.5c0.3,0.2,0.7,0.4,1.1,0.4h11.6c2,0,3.9-0.9,5.1-2.5l6-7.9
	c0.6-0.8,0.4-1.9-0.4-2.6C85.8,8,85.4,7.8,85,7.8L85,7.8z M78.6,11.4l-4.7,6.3c-0.3,0.4-0.8,0.7-1.4,0.7h-2c-0.2,0-0.4-0.2-0.4-0.4
	c0-0.1,0-0.2,0.1-0.3l4.9-6.4c0.3-0.4,0.8-0.7,1.3-0.6h1.9c0.3,0,0.5,0.2,0.5,0.5C78.7,11.2,78.7,11.4,78.6,11.4z M107.4,7.8H92.8
	L82.7,21.2h14.6c0,0,2.2-2.8,2.1-2.8h-7.3l2-2.6h7.3l2.1-2.8h-7.3l1.8-2.4h7.2L107.4,7.8z M111.5,7.8h7.3l-10.1,13.4h-7.3L111.5,7.8
	z M130.5,21.2h-5.8l-1.5-6.7l-5.1,6.7h-4.9l10.1-13.4h5.7l1.5,6.7l5.1-6.7h4.9L130.5,21.2z M152.3,12.4h7.4l1.2-1.6
	c0.6-0.8,0.5-2-0.4-2.6c-0.3-0.2-0.7-0.4-1.1-0.4h-11.5c-2,0-3.9,0.9-5.1,2.5l-5.9,7.9c-0.6,0.8-0.5,2,0.4,2.6
	c0.3,0.2,0.7,0.4,1.1,0.4h11.4c2.1,0,4-1,5.3-2.6l1.3-1.8h1.6l2.1-2.8h-9l-2.8,3.8c-0.3,0.4-0.8,0.6-1.3,0.6h-2
	c-0.3,0-0.5-0.2-0.5-0.5c0-0.1,0-0.2,0.1-0.3l4.8-6.4c0.3-0.4,0.8-0.7,1.3-0.7h2c0.3,0,0.5,0.2,0.5,0.5c0,0.1,0,0.2-0.1,0.3
	L152.3,12.4z M44.7,26.2c-9.4,0.2-18,0.6-22.4,0.9l-4.7-8.9C26.3,26.6,45.1,25.1,44.7,26.2L44.7,26.2z M5,33.6
	c-1.6-1.4-0.5-6.1,3.2-12.2c5-8,11.2-15.2,18.4-21.3C20.2,3.8,14.5,8.8,9.9,14.7c-8.2,10.1-10.8,19.5-7.4,22c1.4,1,6.4-0.1,10.4-6.1
	C10.7,32.6,6.8,35.1,5,33.6L5,33.6z"/>
</svg>
