<?xml version="1.0" encoding="utf-8"?>
<!-- Generator: Adobe Illustrator 19.2.1, SVG Export Plug-In . SVG Version: 6.00 Build 0)  -->
<svg version="1.1" id="Layer_1" xmlns="http://www.w3.org/2000/svg" xmlns:xlink="http://www.w3.org/1999/xlink" x="0px" y="0px"
	 viewBox="0 0 161 35" style="enable-background:new 0 0 161 35;" xml:space="preserve">
<style type="text/css">
	.st0{fill:#8396AF;}
</style>
<path class="st0" d="M0,0h16.4c0,5.6,0,11.1,0,16.6H0V0L0,0z M18,0h16.3v16.6H18C18,11.1,18,5.5,18,0L18,0z M147.5,6.3
	c1.6-0.9,3.4-1.2,5.2-0.6c0,1,0,2.1,0,3.1c-0.8-0.4-1.7-0.5-2.6-0.2c-0.7,0.3-1.1,1-1.2,1.7c-0.1,0.9-0.1,1.8-0.1,2.7h5.2
	c0-1.1,0-2.3,0-3.4c1.2-0.3,2.3-0.7,3.5-1.1c0,1.5,0,3,0,4.5c1.2,0,2.3,0,3.5,0v2.9c-1.2-0.1-2.3,0-3.5,0v5c0,0.9-0.1,1.9,0.1,2.8
	c0,0.6,0.3,1.1,0.8,1.4c0.9,0.4,1.9,0.3,2.7-0.3v3c-1,0.4-2.1,0.6-3.2,0.5c-1.1,0-2.1-0.5-2.8-1.3c-0.7-1-1.1-2.2-1-3.4
	c0-2.6,0-5.2,0-7.7h-5.2V28h-3.5c0-4.1,0-8.1,0-12.1c-0.8,0-1.6,0-2.5,0c0-1,0-1.9,0-2.9c0.8,0,1.6,0,2.4,0c-0.1-1.3,0-2.6,0.2-3.8
	C145.8,8,146.5,7,147.5,6.3L147.5,6.3L147.5,6.3z M71.8,6.6c0.7-0.1,1.5,0.1,2,0.7c0.6,0.7,0.7,1.6,0.2,2.3c-0.5,0.8-1.4,1.2-2.4,1
	c-1-0.2-1.6-1-1.6-2C70,7.6,70.7,6.7,71.8,6.6L71.8,6.6z M44.7,7h5.1c1.6,4.1,3.2,8.3,4.8,12.4c0.4,1,0.8,2.1,1.2,3.1
	C57.9,17.4,60,12.2,62,7c1.7,0,3.3,0,4.9,0v21c-1.2,0-2.4,0-3.6,0c0-5.2,0-10.3,0-15.5c0-0.2,0-0.5,0-0.7c-0.1,0.1-0.1,0.2-0.2,0.3
	c-2,5.3-4.1,10.6-6.2,15.9c-0.8,0-1.7,0-2.5,0c-2.1-5.3-4.2-10.6-6.3-15.9c-0.1-0.1-0.1-0.2-0.2-0.3c0,2.3,0,4.5,0,6.8V28h-3.4
	C44.6,21,44.6,14,44.7,7L44.7,7L44.7,7z M81.5,12.9c1.7-0.5,3.5-0.5,5.2,0c0.4,0.1,0.7,0.2,1,0.4c0,1.1,0,2.3,0,3.4
	c-1.1-0.9-2.6-1.4-4-1.3c-1.2,0.1-2.2,0.7-2.9,1.7c-0.8,1.2-1.2,2.7-0.9,4.2c0.1,1.1,0.6,2.2,1.4,3c0.9,0.8,2.1,1.1,3.3,1
	c1.2-0.2,2.2-0.6,3.2-1.3c0,1.1,0,2.2,0,3.3c-1.5,0.8-3.2,1.2-4.8,1c-1.7-0.1-3.4-0.8-4.6-2c-1.3-1.3-2.1-3.2-2.1-5
	c-0.1-2,0.3-3.9,1.4-5.6C78.5,14.4,79.9,13.4,81.5,12.9L81.5,12.9L81.5,12.9z M120.1,12.7c1.6-0.3,3.3-0.1,4.9,0.5
	c0,1.1,0,2.2,0,3.3c-1.1-0.8-2.4-1.1-3.7-1.1c-0.7,0-1.3,0.3-1.7,0.9c-0.3,0.7-0.1,1.4,0.5,1.8c1,0.7,2.2,1,3.2,1.6
	c0.9,0.4,1.6,1.1,2,2c0.8,1.7,0.4,3.7-0.9,5.1c-1.4,1.1-3.1,1.7-4.9,1.5c-1.2-0.1-2.5-0.3-3.6-0.8c0-1.2,0-2.3,0-3.5
	c0.9,0.7,2,1.2,3.2,1.4c0.8,0.2,1.7,0.1,2.4-0.2c0.7-0.4,0.9-1.3,0.4-2c0,0,0,0,0,0c-0.4-0.5-1-0.8-1.6-1c-1.1-0.4-2.1-0.9-3.1-1.6
	c-0.7-0.5-1.1-1.2-1.3-2c-0.3-1.2-0.2-2.5,0.5-3.6C117.4,13.7,118.7,12.9,120.1,12.7L120.1,12.7L120.1,12.7z M95.7,13.2
	c1-0.6,2.2-0.7,3.3-0.3v3.6c-0.7-0.5-1.6-0.7-2.4-0.6c-1,0.2-1.8,0.9-2.2,1.8c-0.4,1-0.6,2-0.5,3.1c0,2.4,0,4.8,0,7.2h-3.5
	c0-5,0-10,0-15c1.2,0,2.3,0,3.5,0c0,0.9,0,1.7,0,2.6C94.2,14.6,94.8,13.7,95.7,13.2L95.7,13.2z M70.3,12.9c1.2,0,2.3,0,3.5,0
	c0,5,0,10,0,15h-3.5V12.9L70.3,12.9z M113.6,16.5c-0.6-1.4-1.7-2.5-3.1-3.2c-1.6-0.7-3.4-0.9-5.1-0.6c-1.8,0.2-3.5,1.1-4.7,2.5
	c-1,1.3-1.6,2.9-1.6,4.6c-0.2,2,0.2,4,1.3,5.6c1,1.4,2.4,2.4,4.1,2.7c1.4,0.3,2.8,0.3,4.2,0c1.6-0.3,3.1-1.2,4.1-2.6
	c0.9-1.3,1.5-2.8,1.6-4.4C114.5,19.6,114.2,18,113.6,16.5z M110.2,23.4c-0.3,0.8-1,1.4-1.7,1.7c-0.9,0.3-1.9,0.4-2.9,0.1
	c-1-0.3-1.8-1-2.2-1.9c-0.5-1.2-0.7-2.5-0.5-3.8c0.1-1.2,0.5-2.3,1.4-3.1c0.6-0.6,1.5-0.9,2.3-0.9c1.1-0.1,2.2,0.3,3,1
	c0.8,0.9,1.2,2,1.2,3.1C110.8,20.9,110.6,22.2,110.2,23.4L110.2,23.4z M141.9,16.9c-0.5-1.5-1.6-2.8-3-3.5c-1.6-0.8-3.5-1-5.2-0.7
	c-3.3,0.3-5.9,3-6.2,6.3c-0.3,1.8-0.1,3.6,0.6,5.2c0.7,1.6,2,2.9,3.6,3.6c1.6,0.6,3.3,0.7,5,0.4c1.7-0.3,3.3-1.2,4.3-2.6
	c1.1-1.5,1.6-3.3,1.6-5.1C142.5,19.3,142.3,18.1,141.9,16.9z M138.8,22c-0.1,0.8-0.4,1.6-0.9,2.2c-0.5,0.6-1.3,1-2.1,1.1
	c-0.9,0.1-1.7,0.1-2.5-0.3c-0.9-0.4-1.5-1.1-1.9-2c-0.4-1-0.5-2.2-0.4-3.3c0-1.1,0.4-2.1,1.1-3c0.6-0.8,1.6-1.2,2.6-1.3
	c1-0.1,2,0.2,2.8,0.9c0.7,0.6,1.1,1.5,1.3,2.4C138.9,19.8,138.9,20.9,138.8,22z M0,18.4h16.4V35H0V18.4L0,18.4z M18,18.4h16.3V35H18
	C18,29.4,18,23.9,18,18.4L18,18.4z"/>
</svg>
