<?xml version="1.0" encoding="utf-8"?>
<!-- Generator: Adobe Illustrator 19.2.1, SVG Export Plug-In . SVG Version: 6.00 Build 0)  -->
<svg version="1.1" id="Layer_1" xmlns="http://www.w3.org/2000/svg" xmlns:xlink="http://www.w3.org/1999/xlink" x="0px" y="0px"
	 viewBox="0 0 208 35" style="enable-background:new 0 0 208 35;" xml:space="preserve">
<style type="text/css">
	.st0{fill:#8396AF;}
</style>
<path class="st0" d="M208,13.7h-15.2L196.6,0l-12.9,13.7H123c0,0-0.2,0-0.2,0.1c0,0.1,0.1,0.1,0.2,0.1l59.5,0.9l-7.5,7.9
	c0,0-0.1,0.1-0.1,0.2c0.1,0,0.2,0,0.2-0.1l8.4-8l7.6,0.1l-1.4,6.4l-24.4,12.9c0,0-0.2,0.1-0.1,0.2c0.1,0.1,0.2,0.1,0.2,0l24-11.7
	l-2.7,12c0,0-0.1,0.2,0.1,0.2c0.1,0,0.2,0,0.2-0.1c0,0,0,0,0,0l3.5-12.6L208,13.7 M184.9,13.7l8.4-7.9l-1.8,7.9H184.9z M192.4,15
	l9.1,0.1l-10.7,5.6L192.4,15z M1.4,18.2h2.7L3,23h2.4l-0.4,1.8H0L1.4,18.2 M13.3,21.4c0.3-1.5,0.7-1.7,1.1-1.7s0.7,0.3,0.3,1.7
	c-0.3,1.5-0.7,1.8-1.1,1.8S13,23,13.3,21.4 M10.6,21.4c-0.4,2.1,0.4,3.5,2.7,3.5c2.1,0.1,3.9-1.4,4.2-3.5c0.4-2-0.4-3.4-2.7-3.4
	C12.7,17.9,10.9,19.4,10.6,21.4L10.6,21.4z M28.8,22.3c-0.4,1.7-2,2.7-3.7,2.6c-2.3,0-3.1-1.4-2.7-3.5c0.3-2,2.1-3.5,4.2-3.4
	c1.7,0,3,0.7,2.6,2.6h-2.4c0.1-0.8-0.1-0.9-0.4-0.9c-0.7,0-0.9,0.7-1.1,1.7c-0.2,1-0.3,1.8,0.3,1.8c0.5-0.1,0.8-0.4,0.8-0.9
	L28.8,22.3 M35.5,18.2h2.6L37.5,21h0l2-2.8h2.8l-2.4,3.1l1.3,3.5h-2.9l-0.9-2.9h0l-0.6,2.9h-2.6L35.5,18.2 M50.8,22.3h-1.1l-0.5,2.4
	h-2.6l1.4-6.6h2.6l-0.5,2.2h1.1l0.5-2.2h2.7l-1.4,6.6h-2.7L50.8,22.3 M60.5,18.2h5.1l-0.4,1.7h-2.6l-0.2,0.7h2.3l-0.4,1.7h-2.3
	L62,23h2.6l-0.4,1.7h-5.2L60.5,18.2 M71.9,18.2H77l-0.4,1.7H74l-0.2,0.7h2.3l-0.4,1.7h-2.3L73.4,23H76l-0.4,1.7h-5.2L71.9,18.2
	 M85.6,19.7h0.3c0.3,0,0.6,0.1,0.8,0.4c0.1,0.5,0.1,0.9-0.1,1.4c-0.1,0.5-0.3,1-0.5,1.4c-0.2,0.3-0.6,0.4-0.9,0.4h-0.3L85.6,19.7
	 M81.9,24.7h3.3c2,0.1,3.7-1.3,4.1-3.2c0.4-1.9-0.1-3.4-2.8-3.4h-3.1L81.9,24.7z M106.8,20L106.8,20l-2,4.7h-2.4l0.1-4.7h0l-1,4.7
	h-2.2l1.4-6.6h3.7l-0.1,3.9h0l1.6-3.9h3.7l-1.4,6.6h-2.2L106.8,20 M117.2,22.1l1.1-2.5h0v2.5H117.2 M113.4,24.7h2.5l0.5-1.1h1.9
	l0,1.1h2.7l-0.7-6.6H117L113.4,24.7z M130.4,20.9l0.3-1.2h0.2c0.5,0,0.8,0.1,0.7,0.6c-0.1,0.5-0.6,0.7-1,0.7H130.4 M127,24.7h2.6
	l0.5-2.3h0.3c0.4,0,0.6,0.1,0.6,0.4c-0.1,0.6-0.1,1.3-0.1,1.9h2.6c0-0.8,0-1.7,0.1-2.5c0-0.5-0.4-0.8-0.9-0.8c0,0,0,0-0.1,0v0
	c0.8-0.1,1.5-0.7,1.7-1.6c0.3-1.2-0.5-1.7-1.9-1.7h-3.9L127,24.7z M141.8,19.9h-1.7l0.4-1.8h5.9l-0.4,1.8h-1.7l-1,4.8h-2.7
	L141.8,19.9 M152.6,18.2h2.7l-1.4,6.6h-2.7L152.6,18.2 M161.7,18.2h3.2l0.6,4h0l0.9-4h2.2l-1.4,6.6h-3.2l-0.5-4h0l-0.9,4h-2.1
	L161.7,18.2"/>
</svg>
