<?xml version="1.0" encoding="utf-8"?>
<!-- Generator: Adobe Illustrator 19.2.1, SVG Export Plug-In . SVG Version: 6.00 Build 0)  -->
<svg version="1.1" id="Layer_1" xmlns="http://www.w3.org/2000/svg" xmlns:xlink="http://www.w3.org/1999/xlink" x="0px" y="0px"
	 viewBox="0 0 139 42" style="enable-background:new 0 0 139 42;" xml:space="preserve">
<style type="text/css">
	.st0{fill:#8396AF;}
</style>
<path class="st0" d="M21.9,0c0.5,0.1,1.1,0.1,1.6,0.2c2.2,0.3,4.4,0.9,6.4,1.9c5.3,2.5,9.3,7.2,11,12.9c0.7,2.2,1,4.5,0.9,6.8
	c-0.2,7.5-4.5,14.3-11.1,17.8c-2.3,1.3-4.9,2.1-7.6,2.3c-5.5,0.6-11-1-15.2-4.6c-4-3.2-6.7-7.8-7.5-12.8c-0.2-1-0.2-2-0.3-3
	c0-0.1,0-0.1,0-0.2v-0.6c0-0.1,0-0.2,0-0.3c0.1-1.2,0.2-2.4,0.4-3.6C1.6,11.1,5,6.2,9.9,3.1c2.5-1.6,5.3-2.6,8.3-2.9
	c0.5-0.1,1.1-0.1,1.6-0.2L21.9,0L21.9,0z M17.2,11.1c-0.8,0.1-2.2,0.1-3.6,0.2c-1.9,0.2-3.8,0.5-5.6,1.1c-1,0.3-1.7,1.3-1.4,2.4
	c0.3,1,1.3,1.7,2.4,1.4c0,0,0.1,0,0.1,0c2.4-0.7,4.8-1.1,7.3-1.1c2.6-0.1,5.1,0,7.7,0.5c2.2,0.3,4.3,0.9,6.3,1.7
	c1,0.4,1.9,0.9,2.9,1.4c0.9,0.6,2.1,0.3,2.7-0.6c0.6-0.9,0.3-2.1-0.6-2.7c0,0,0,0-0.1,0c-1.3-0.8-2.6-1.4-4-1.9
	C26.7,11.8,21.9,11,17.2,11.1z M16.7,18.4c-0.7,0.1-2,0.1-3.4,0.3c-1.4,0.2-2.9,0.5-4.2,0.9c-0.9,0.2-1.4,1.1-1.1,2
	c0.2,0.9,1.1,1.4,2,1.1c0,0,0.1,0,0.1,0c2.3-0.7,4.7-1,7.1-1c1.5,0,3.1,0.1,4.6,0.3c3.2,0.4,6.3,1.5,9.1,3.1
	c0.8,0.5,1.8,0.2,2.2-0.6c0.5-0.8,0.2-1.8-0.6-2.2c-0.7-0.4-1.5-0.8-2.2-1.2C25.9,19.2,21.3,18.3,16.7,18.4z M17.7,25.2
	c-0.5,0-0.9,0-1.4,0c-2.2,0.1-4.4,0.4-6.5,0.9c-0.7,0.1-1.2,0.8-1,1.5s0.8,1.2,1.5,1c0,0,0.1,0,0.1,0c1.9-0.4,3.9-0.7,5.9-0.8
	c1.9-0.1,3.9,0,5.8,0.4c2.4,0.4,4.6,1.3,6.6,2.5c0.6,0.4,1.4,0.2,1.7-0.4c0,0,0,0,0,0c0.4-0.6,0.2-1.4-0.4-1.8c0,0,0,0,0,0
	c-0.3-0.2-0.7-0.4-1-0.6C25.5,26.1,21.6,25.2,17.7,25.2z M139,18.6c-0.1,0.3-0.2,0.5-0.3,0.8c-0.5,1-1.6,1.5-2.6,1.2
	c-1.2-0.3-1.9-1.6-1.6-2.8c0.2-0.9,1-1.5,1.9-1.7c1.2-0.2,2.4,0.6,2.6,1.8c0,0,0,0,0,0c0,0,0,0.1,0.1,0.1L139,18.6L139,18.6z
	 M136.7,16.3c-1.1,0-2.1,0.9-2.1,2s0.9,2.1,2,2.1l0,0c1.1,0,2-0.9,2-2c0.1-1.1-0.8-2-1.9-2.1C136.8,16.3,136.8,16.3,136.7,16.3
	L136.7,16.3z M117.3,16.1h0.3c1.6,0,3.3,0,4.9,0c0.3,0,0.5,0.1,0.6,0.4c1.2,3.1,2.3,6.1,3.5,9.2c0,0.1,0.1,0.2,0.2,0.4
	c0.3-0.9,0.6-1.7,0.9-2.5c0.8-2.4,1.7-4.8,2.5-7.2c0-0.2,0.2-0.3,0.4-0.3c1,0,2.1,0,3.1,0c0.3,0,0.4,0.1,0.3,0.4
	c-1.9,5-3.8,9.9-5.7,14.9c-0.3,0.9-0.8,1.8-1.5,2.5c-0.7,0.7-1.6,1.1-2.6,1.2c-1.3,0.1-2.7-0.1-3.8-0.8c-0.3-0.2-0.3-0.2-0.2-0.6
	c0.3-0.7,0.6-1.4,1-2.1c0.1-0.3,0.2-0.3,0.5-0.2c0.5,0.3,1.2,0.4,1.8,0.4c0.6,0,1.1-0.4,1.4-0.9c0.2-0.3,0.2-0.6,0.1-0.9
	c-1.5-3.5-2.9-6.9-4.3-10.4c0-0.2-0.2-0.3-0.4-0.3c-0.8,0-1.6,0-2.4,0c-0.2,0-0.3,0.1-0.3,0.3c0,3.5,0,7,0,10.6c0,0.5,0,0.5-0.5,0.5
	H114c-0.4,0-0.4,0-0.4-0.4V19.4h-1.3c-0.4,0-0.4,0-0.5-0.5c0-0.8,0-1.6,0-2.4c0-0.4,0.1-0.4,0.4-0.4c0.4,0,0.9,0,1.3,0
	c0-0.6,0-1.1,0.1-1.6c0-1.4,0.8-2.7,2-3.4c0.6-0.3,1.3-0.5,1.9-0.5c1-0.1,2.1,0,3.1,0.3c0.2,0,0.3,0.2,0.3,0.4c0,0,0,0,0,0
	c0,0.8,0,1.6,0,2.5c0,0.4-0.1,0.4-0.5,0.3c-0.6-0.1-1.1-0.2-1.7-0.3c-0.7-0.1-1.4,0.4-1.5,1.2c0,0.1,0,0.1,0,0.2
	C117.2,15.5,117.3,15.8,117.3,16.1L117.3,16.1z M67.8,29.1v5.4c0,0.5,0,0.5-0.5,0.5h-2.7c-0.4,0-0.5,0-0.5-0.4V16.5
	c0-0.4,0-0.4,0.4-0.4h2.9c0.4,0,0.4,0.1,0.4,0.4c0,0.4,0,0.9,0,1.4c0.1-0.1,0.1-0.1,0.2-0.2c1.9-2.1,5-2.6,7.4-1.2
	c1.9,1,3.2,2.8,3.5,4.9c0.4,1.8,0.2,3.7-0.5,5.4c-0.9,2.3-3,3.9-5.4,4.1c-1.8,0.3-3.7-0.4-5-1.7C68,29.2,68,29.2,67.8,29.1
	C67.9,29.1,67.9,29.1,67.8,29.1L67.8,29.1z M71.6,27.7c1.1,0.1,2.1-0.4,2.8-1.3c1.2-1.5,1.4-3.6,0.5-5.3c-0.9-1.8-3-2.6-4.8-1.7
	c-0.5,0.3-1,0.6-1.4,1.1c-1.2,1.7-1.2,3.9-0.1,5.6C69.3,27.2,70.4,27.7,71.6,27.7L71.6,27.7z M55.4,11.3c2.4-0.1,4.7,0.7,6.6,2.2
	c0.4,0.3,0.4,0.3,0.1,0.7c-0.5,0.7-1,1.4-1.5,2.1c-0.2,0.3-0.3,0.4-0.6,0.1c-1-0.8-2.3-1.4-3.5-1.6c-1-0.2-2-0.2-2.9,0.3
	c-0.8,0.4-1.3,1.3-1,2.1c0.1,0.5,0.4,0.9,0.8,1.1c0.7,0.3,1.4,0.6,2.2,0.9c1.2,0.4,2.4,0.7,3.6,1.1c0.7,0.3,1.3,0.6,1.9,1
	c1.2,0.9,1.9,2.3,1.9,3.8c0.1,1.5-0.5,3-1.5,4.1c-0.9,1-2.2,1.6-3.5,1.8c-3.5,0.6-7.1-0.4-9.7-2.7c-0.3-0.3-0.3-0.3,0-0.6l1.7-2.1
	c0.2-0.3,0.3-0.3,0.6-0.1c1.1,1,2.5,1.8,4,2.1c1,0.2,2.1,0.2,3.2-0.1c1.1-0.3,1.7-1.4,1.4-2.4c0,0,0,0,0,0c-0.1-0.4-0.4-0.7-0.7-0.9
	c-0.8-0.4-1.7-0.8-2.6-1c-1.2-0.4-2.4-0.7-3.6-1.1c-0.9-0.3-1.7-0.9-2.4-1.6c-0.9-1.1-1.3-2.5-1.1-3.9c0.3-2.5,2.2-4.5,4.7-4.9
	c0.3-0.1,0.7-0.1,1-0.2C54.8,11.2,55.1,11.3,55.4,11.3L55.4,11.3z M87.9,15.8c4.2,0.1,7.6,3.6,7.5,7.8c-0.1,4.2-3.6,7.6-7.8,7.5
	c-1.7,0-3.4-0.6-4.7-1.8c-2-1.6-3-4.1-2.7-6.6c0.3-3.5,3-6.3,6.5-6.8C87.1,15.8,87.5,15.8,87.9,15.8L87.9,15.8z M91.9,23.5
	c0-0.8-0.2-1.6-0.6-2.2c-1-1.9-3.4-2.7-5.4-1.6c-0.4,0.2-0.8,0.6-1.2,0.9C84,21.6,83.7,23,84,24.4c0.3,2.2,2.4,3.7,4.6,3.3
	c0.4-0.1,0.8-0.2,1.1-0.4C91.1,26.6,92,25.1,91.9,23.5L91.9,23.5z M101.3,19.4v6.6c0,0.1,0,0.2,0,0.3c0,0.8,0.5,1.4,1.3,1.4
	c0.2,0,0.4,0,0.5-0.1c0.5-0.1,1-0.2,1.4-0.4c0.3-0.1,0.5,0,0.5,0.3c0,0.8,0,1.6,0,2.4c0,0.2-0.1,0.4-0.3,0.4c-1,0.6-2.2,0.8-3.4,0.6
	c-0.6,0-1.2-0.2-1.8-0.4c-1.2-0.5-2-1.7-2-3c0-0.4-0.1-0.9-0.1-1.3c0-2.1,0-4.3,0-6.4v-0.4h-1.3c-0.5,0-0.5,0-0.5-0.5
	c0-0.8,0-1.5,0-2.3c0-0.4,0-0.4,0.5-0.5h1.3c0-0.1,0-0.2,0-0.3c0-1.1,0-2.1,0-3.1c0-0.2,0.1-0.4,0.2-0.4c0,0,0.1,0,0.1,0
	c1,0,2,0,3,0c0.2,0,0.3,0.1,0.4,0.2c0,0,0,0.1,0,0.1c0,1.1,0,2.1,0,3.2c0,0.1,0,0.3,0.2,0.3c0,0,0.1,0,0.1,0c1,0,2,0,3.1,0
	c0.4,0,0.4,0.1,0.4,0.4c0,0.8,0,1.6,0,2.5c0,0.2-0.1,0.3-0.2,0.4c0,0-0.1,0-0.1,0c-1,0-2,0-3,0H101.3L101.3,19.4z M106.6,23.4
	c0-2.3,0-4.6,0-6.9c0-0.4,0-0.5,0.5-0.5h2.8c0.4,0,0.4,0.1,0.4,0.4v13.8c0,0.4,0,0.4-0.4,0.4H107c-0.4,0-0.4,0-0.4-0.4
	C106.6,28,106.6,25.7,106.6,23.4L106.6,23.4z M108.5,14.3c-1.3,0-2.3-1.1-2.3-2.3c0-1.3,1-2.3,2.3-2.3c1.3,0,2.3,1,2.3,2.3
	C110.8,13.3,109.8,14.3,108.5,14.3L108.5,14.3L108.5,14.3z M136.3,19.5h-0.5v-2.4c0.4,0,0.9,0,1.3,0c0.3,0,0.6,0.3,0.7,0.6
	c0.1,0.3-0.1,0.7-0.4,0.9c0,0-0.1,0-0.1,0.1c0.2,0.3,0.4,0.6,0.6,0.8c-0.2,0.2-0.5,0.1-0.7-0.1c0,0,0-0.1,0-0.1
	c-0.1-0.1-0.1-0.2-0.2-0.3c-0.1-0.3-0.4-0.4-0.7-0.3c0,0,0,0,0,0L136.3,19.5L136.3,19.5z M136.3,18.3c0.3,0,0.5,0,0.8-0.1
	c0.1-0.1,0.2-0.2,0.2-0.3c0-0.1-0.1-0.2-0.2-0.3c-0.3,0-0.5,0-0.8,0V18.3L136.3,18.3z"/>
</svg>
