<?xml version="1.0" encoding="utf-8"?>
<!-- Generator: Adobe Illustrator 19.1.0, SVG Export Plug-In . SVG Version: 6.00 Build 0)  -->
<svg version="1.1" id="Layer_1" xmlns="http://www.w3.org/2000/svg" xmlns:xlink="http://www.w3.org/1999/xlink" x="0px" y="0px"
	 viewBox="0 0 160 30" style="enable-background:new 0 0 160 30;" xml:space="preserve">
<style type="text/css">
	.st0{fill:#FFFFFF;}
	.st1{fill:#E03E26;}
</style>
<g>
	<path class="st0" d="M9.8,20.9v2.4c0,0.5-0.2,0.9-0.8,0.9H0.8c-0.7,0-0.8-0.3-0.8-0.9v-2.4C0,20.3,0.2,20,0.8,20h1.8V8.5H0.9
		c-0.7,0-0.8-0.3-0.8-0.9V5.2c0-0.5,0.2-0.9,0.8-0.9h8c0.7,0,0.8,0.3,0.8,0.9v2.4c0,0.5-0.2,0.9-0.8,0.9H7.1V20h1.8
		C9.6,20,9.8,20.3,9.8,20.9L9.8,20.9z M28.8,5.2v18.1c0,0.5-0.2,0.9-0.8,0.9h-2.6c-0.7,0-0.9-0.4-1.3-1L18,12.8v10.5
		c0,0.7-0.3,0.9-0.8,0.9h-2.8c-0.5,0-0.8-0.2-0.8-0.9V5.2c0-0.5,0.2-0.9,0.8-0.9H17c0.7,0,0.9,0.4,1.3,1l6.1,10.3V5.2
		c0-0.7,0.3-0.9,0.8-0.9h2.8C28.4,4.3,28.8,4.5,28.8,5.2L28.8,5.2z M48.6,5.2l-6.1,18.1c-0.3,0.8-0.5,0.9-1.2,0.9h-2.8
		c-0.6,0-0.8-0.1-1.2-0.9L31.2,5.2c-0.1-0.4,0-0.9,0.5-0.9h3.2c0.7,0,0.9,0.2,1.2,1l3.9,12.5l3.9-12.5c0.2-0.7,0.4-1,1.2-1h3
		C48.6,4.3,48.7,4.8,48.6,5.2L48.6,5.2z M60.2,20.9v2.4c0,0.5-0.2,0.9-0.8,0.9h-8.1c-0.7,0-0.8-0.3-0.8-0.9v-2.4
		c0-0.5,0.2-0.9,0.8-0.9h1.8V8.5h-1.7c-0.7,0-0.8-0.3-0.8-0.9V5.2c0-0.5,0.2-0.9,0.8-0.9h8c0.7,0,0.8,0.3,0.8,0.9v2.4
		c0,0.5-0.2,0.9-0.8,0.9h-1.7V20h1.8C60.1,20,60.2,20.3,60.2,20.9L60.2,20.9z M79.2,5.2v18.1c0,0.5-0.2,0.9-0.8,0.9h-2.6
		c-0.7,0-0.9-0.4-1.3-1l-6.1-10.4v10.5c0,0.7-0.3,0.9-0.8,0.9h-2.8c-0.5,0-0.8-0.2-0.8-0.9V5.2c0-0.5,0.2-0.9,0.8-0.9h2.7
		c0.7,0,0.9,0.4,1.3,1l6.1,10.3V5.2c0-0.7,0.3-0.9,0.8-0.9h2.8C78.9,4.3,79.2,4.5,79.2,5.2L79.2,5.2z"/>
</g>
<g>
	<path class="st0" d="M125.4,18.3c0,4.3-3.2,6.3-7.6,6.3c-3.6,0-7.7-2.2-7.7-6.4c0-0.7,0.2-0.8,0.8-0.8h2.8c0.7,0,1,0.1,1,0.8
		c0,0.4,0.2,0.8,0.5,1.2c0.6,0.7,1.7,1,2.8,1c1.5,0,2.8-0.4,2.8-2.1c0-1.7-2.5-1.7-5-2.5c-2.9-1-5.6-2.2-5.6-6c0-3.9,3.4-5.9,7-6
		c3.6,0,7.6,1.8,7.6,5.7c0,0.7-0.2,0.8-0.8,0.8h-2.8c-0.5,0-0.6-0.4-0.8-0.8c-0.1-0.3-0.3-0.5-0.6-0.9c-0.5-0.5-1.6-0.8-2.4-0.8
		c-0.9,0-2.5,0.4-2.5,1.8c0,1.8,4.2,2.5,5.4,3C122.3,13.3,125.4,14.1,125.4,18.3L125.4,18.3z M143.5,5.1l-5.9,11.6v6.6
		c0,0.7-0.3,0.9-0.8,0.9h-2.9c-0.5,0-0.8-0.2-0.8-0.9v-6.6L127,5.1c-0.1-0.3-0.1-0.8,0.5-0.8h3.3c0.7,0,0.9,0.1,1.3,0.9l3.4,6.5
		l3.2-6.5c0.4-0.8,0.7-0.9,1.3-0.9h3.1C143.6,4.3,143.7,4.8,143.5,5.1L143.5,5.1z M160,18.3c0,4.3-3.2,6.3-7.6,6.3
		c-3.6,0-7.7-2.2-7.7-6.4c0-0.7,0.2-0.8,0.8-0.8h2.8c0.7,0,1,0.1,1,0.8c0,0.4,0.2,0.8,0.5,1.2c0.6,0.7,1.7,1,2.8,1
		c1.5,0,2.8-0.4,2.8-2.1c0-1.7-2.5-1.7-5-2.5c-2.9-1-5.6-2.2-5.6-6c0-3.9,3.4-5.9,7-6c3.6,0,7.6,1.8,7.6,5.7c0,0.7-0.2,0.8-0.8,0.8
		h-2.8c-0.5,0-0.6-0.4-0.8-0.8c-0.1-0.3-0.3-0.5-0.6-0.9c-0.5-0.5-1.6-0.8-2.4-0.8c-0.9,0-2.5,0.4-2.5,1.8c0,1.8,4.2,2.5,5.4,3
		C157,13.3,160,14.1,160,18.3L160,18.3z"/>
</g>
<path class="st1" d="M95.3,3.3c3.6,0,6.6,3.1,6.6,7c0,3.8-3,6.9-6.6,6.9s-6.6-3.1-6.6-6.9C88.7,6.4,91.6,3.3,95.3,3.3 M95.3,0
	c-5.4,0-9.7,4.6-9.7,10.2s4.4,10.2,9.7,10.2s9.7-4.6,9.7-10.2S100.7,0,95.3,0L95.3,0z M95.3,12.8c3.6,0,6.6,3.1,6.6,6.9
	c0,3.8-3,7-6.6,7s-6.6-3.1-6.6-7C88.7,15.9,91.6,12.8,95.3,12.8 M95.3,9.5c-5.4,0-9.7,4.6-9.7,10.2c0,5.7,4.4,10.2,9.7,10.2
	s9.7-4.6,9.7-10.2C105,14.1,100.7,9.5,95.3,9.5L95.3,9.5z"/>
</svg>
