<?xml version="1.0" encoding="utf-8"?>
<!-- Generator: Adobe Illustrator 19.2.1, SVG Export Plug-In . SVG Version: 6.00 Build 0)  -->
<svg version="1.1" id="Layer_1" xmlns="http://www.w3.org/2000/svg" xmlns:xlink="http://www.w3.org/1999/xlink" x="0px" y="0px"
	 viewBox="-816 969 365.2 65" style="enable-background:new -816 969 365.2 65;" xml:space="preserve">
<style type="text/css">
	.st0{fill:#15212D;}
	.st1{fill:#E03E26;}
</style>
<g>
	<path class="st0" d="M-793.7,1014.2v5.2c0,1.2-0.4,1.9-1.9,1.9h-18.5c-1.5,0-1.9-0.7-1.9-1.9v-5.2c0-1.2,0.4-1.9,1.9-1.9h4.1v-25
		h-4c-1.5,0-1.9-0.7-1.9-1.9v-5.3c0-1.2,0.4-1.9,1.9-1.9h18.2c1.5,0,1.9,0.7,1.9,1.9v5.3c0,1.2-0.4,1.9-1.9,1.9h-3.9v25h4.1
		C-794.1,1012.3-793.7,1013.1-793.7,1014.2L-793.7,1014.2z M-750.4,980.2v39.2c0,1.2-0.4,1.9-1.9,1.9h-5.9c-1.6,0-2.1-0.9-2.9-2.2
		l-13.9-22.4v22.8c0,1.5-0.7,1.9-1.9,1.9h-6.5c-1.2,0-1.9-0.4-1.9-1.9v-39.2c0-1.2,0.4-1.9,1.9-1.9h6.1c1.6,0,2.1,0.9,2.9,2.2
		l13.9,22.4v-22.7c0-1.5,0.7-1.9,1.9-1.9h6.3C-751.1,978.3-750.4,978.7-750.4,980.2L-750.4,980.2z M-705.2,980.2l-14,39.2
		c-0.8,1.7-1.2,2-2.7,2h-6.3c-1.4,0-1.9-0.3-2.7-2l-14.1-39.2c-0.3-0.8-0.1-1.9,1.2-1.9h7.3c1.7,0,2.2,0.5,2.7,2.1l8.9,27.1
		l8.8-27.1c0.5-1.6,1-2.1,2.7-2.1h6.9C-705.1,978.3-704.8,979.3-705.2,980.2L-705.2,980.2z M-678.5,1014.2v5.2
		c0,1.2-0.4,1.9-1.9,1.9h-18.5c-1.5,0-1.9-0.7-1.9-1.9v-5.2c0-1.2,0.4-1.9,1.9-1.9h4.1v-25h-4c-1.5,0-1.9-0.7-1.9-1.9v-5.3
		c0-1.2,0.4-1.9,1.9-1.9h18.2c1.5,0,1.9,0.7,1.9,1.9v5.3c0,1.2-0.4,1.9-1.9,1.9h-3.9v25h4.1
		C-678.9,1012.3-678.5,1013.1-678.5,1014.2L-678.5,1014.2z M-635.2,980.2v39.2c0,1.2-0.4,1.9-1.9,1.9h-5.9c-1.6,0-2.1-0.9-2.9-2.2
		l-13.9-22.4v22.8c0,1.5-0.7,1.9-1.9,1.9h-6.5c-1.2,0-1.9-0.4-1.9-1.9v-39.2c0-1.2,0.4-1.9,1.9-1.9h6.1c1.6,0,2.1,0.9,2.9,2.2
		l13.9,22.4v-22.7c0-1.5,0.7-1.9,1.9-1.9h6.3C-635.9,978.3-635.1,978.7-635.2,980.2L-635.2,980.2z"/>
</g>
<g>
	<path class="st0" d="M-529.8,1008.5c0,9.3-7.3,13.7-17.4,13.7c-8.2,0-17.6-4.7-17.6-13.9c0-1.5,0.4-1.8,1.9-1.8h6.3
		c1.5,0,2.2,0.2,2.4,1.8c0.1,0.9,0.4,1.7,1.2,2.7c1.3,1.6,4,2.2,6.4,2.2c3.5,0,6.4-0.8,6.4-4.4s-5.8-3.7-11.4-5.5
		c-6.6-2.1-12.7-4.7-12.7-13c0-8.5,7.7-12.7,15.9-13c8.3,0,17.4,3.8,17.4,12.4c0,1.6-0.4,1.8-1.9,1.8h-6.4c-1.2,0-1.4-0.9-1.8-1.8
		c-0.3-0.7-0.6-1.2-1.4-2c-1.2-1.2-3.6-1.8-5.6-1.8c-2.2,0-5.8,0.9-5.8,3.8c0,4,9.6,5.4,12.2,6.5
		C-536.8,997.8-529.8,999.7-529.8,1008.5L-529.8,1008.5z M-488.4,980.1l-13.5,25v14.3c0,1.5-0.7,1.9-1.9,1.9h-6.5
		c-1.2,0-1.9-0.4-1.9-1.9v-14.3l-14-25c-0.3-0.7-0.2-1.8,1-1.8h7.5c1.5,0,2.2,0.2,3.1,2l7.6,14.1l7.4-14.1c0.9-1.8,1.5-2,3-2h7.1
		C-488.2,978.3-488.1,979.4-488.4,980.1L-488.4,980.1z M-450.8,1008.5c0,9.3-7.3,13.7-17.4,13.7c-8.2,0-17.6-4.7-17.6-13.9
		c0-1.5,0.4-1.8,1.9-1.8h6.3c1.5,0,2.2,0.2,2.4,1.8c0.1,0.9,0.4,1.7,1.2,2.7c1.3,1.6,4,2.2,6.4,2.2c3.5,0,6.4-0.8,6.4-4.4
		s-5.8-3.7-11.4-5.5c-6.6-2.1-12.7-4.7-12.7-13c0-8.5,7.7-12.7,15.9-13c8.3,0,17.4,3.8,17.4,12.4c0,1.6-0.4,1.8-1.9,1.8h-6.4
		c-1.2,0-1.4-0.9-1.8-1.8c-0.3-0.7-0.6-1.2-1.4-2c-1.2-1.2-3.6-1.8-5.6-1.8c-2.2,0-5.8,0.9-5.8,3.8c0,4,9.6,5.4,12.2,6.5
		C-457.7,997.8-450.8,999.7-450.8,1008.5L-450.8,1008.5z"/>
</g>
<path class="st1" d="M-598.5,976.1c8.3,0,15.1,6.8,15.1,15.1c0,8.3-6.8,15.1-15.1,15.1s-15.1-6.8-15.1-15.1
	C-613.6,982.9-606.8,976.1-598.5,976.1 M-598.5,969c-12.2,0-22.2,9.9-22.2,22.2c0,12.3,9.9,22.2,22.2,22.2s22.2-9.9,22.2-22.2
	S-586.3,969-598.5,969L-598.5,969z M-598.5,996.8c8.3,0,15.1,6.8,15.1,15.1c0,8.3-6.8,15.1-15.1,15.1s-15.1-6.8-15.1-15.1
	C-613.6,1003.5-606.8,996.8-598.5,996.8 M-598.5,989.6c-12.2,0-22.2,9.9-22.2,22.2c0,12.3,9.9,22.2,22.2,22.2s22.2-9.9,22.2-22.2
	C-576.3,999.6-586.3,989.6-598.5,989.6L-598.5,989.6z"/>
</svg>
