<?xml version="1.0" encoding="utf-8"?>
<!-- Generator: Adobe Illustrator 19.2.1, SVG Export Plug-In . SVG Version: 6.00 Build 0)  -->
<svg version="1.1" id="Layer_1" xmlns="http://www.w3.org/2000/svg" xmlns:xlink="http://www.w3.org/1999/xlink" x="0px" y="0px"
	 viewBox="0 0 118 32" style="enable-background:new 0 0 118 32;" xml:space="preserve">
<style type="text/css">
	.st0{fill:#8396AF;}
</style>
<path class="st0" d="M62.8,31.2H79c2.3,0,4.6-1,6-2.9c1.6-1.9,2.4-4.2,2.4-6.6c0-5.1-6.8-8.7-9.4-8.7h-8.9c-0.6,0-1.3-0.3-1.7-0.8
	c-0.4-0.5-0.7-1.2-0.7-1.9c0-0.8,0.2-1.5,0.7-2.2c0.4-0.6,1.1-1,1.9-1h16.6V0.7H69c-2.6-0.2-5.2,0.8-7.1,2.6
	c-1.5,1.8-2.3,4.1-2.2,6.4c-0.1,2.4,0.7,4.7,2.2,6.6c1.4,1.9,3.7,3,6.1,3h10.2c0.6,0,1.1,0.2,1.5,0.7c0.4,0.5,0.6,1.1,0.6,1.8
	c0,0.8-0.3,1.5-0.8,2.1c-0.5,0.5-1.2,0.9-2,0.9H61.2l-0.2-0.4L54.8,5.1l-0.3-0.6c-1.3-2.8-4.2-4.6-7.4-4.4c-1.8,0-3.5,0.4-5,1.3
	c-1.5,0.9-2.6,2.3-3.1,3.9l-8.2,25.8l7.5,0.1l7.6-23c0.1-0.6,0.6-1.1,1.2-1.1c0.3,0,0.5,0.1,0.8,0.3c0.2,0.2,0.3,0.5,0.4,0.8l7.6,23
	L62.8,31.2L62.8,31.2z M7,10.1v21.1H0V7.8c0-3,0.7-5.1,2.4-6.4c1.7-1,3.7-1.5,5.7-1.4c2,0,3.9,0.6,5.5,1.8c1.6,1.1,2.7,2.8,3.2,4.6
	l4.5,15.5l0.8,2.1c0.1,0.4,0.3,0.7,0.6,1c0.3,0.3,0.6,0.3,1,0.2c0.5,0,0.9-0.4,0.9-0.9c0,0,0,0,0-0.1V0.7h7.1V24
	c0.2,2.1-0.5,4.3-1.9,5.9c-1.5,1.5-3.5,2.3-5.6,2.1c-1.9,0-3.7-0.3-5.4-1.1c-1.6-0.7-2.9-2.2-3.3-3.9L10.2,9.2L9.9,8.1
	c-0.1-0.4-0.4-0.8-0.7-1c-0.3-0.2-0.7-0.3-1-0.2C7.8,6.9,7.4,7.1,7.3,7.4C7.1,7.7,6.9,8.1,7,8.5L7,10.1L7,10.1L7,10.1z M118,31.2
	l-8.1-26.1l-0.3-0.6c-1.3-2.8-4.2-4.6-7.4-4.4c-1.8,0-3.5,0.4-5,1.3c-1.5,0.9-2.6,2.3-3.1,3.9l-8.2,25.8l7.5,0.1l7.6-23
	c0.1-0.6,0.6-1.1,1.2-1.1c0.3,0,0.5,0.1,0.7,0.3c0.2,0.2,0.3,0.5,0.4,0.8l7.6,23L118,31.2L118,31.2z"/>
</svg>
