<?xml version="1.0" encoding="utf-8"?>
<!-- Generator: Adobe Illustrator 19.2.1, SVG Export Plug-In . SVG Version: 6.00 Build 0)  -->
<svg version="1.1" id="Layer_1" xmlns="http://www.w3.org/2000/svg" xmlns:xlink="http://www.w3.org/1999/xlink" x="0px" y="0px"
	 viewBox="0 0 181 37" style="enable-background:new 0 0 181 37;" xml:space="preserve">
<style type="text/css">
	.st0{fill:#8396AF;}
</style>
<path class="st0" d="M125.8,20v-3.8h-5.2V12h4.8V8.1h-4.8V4.6h4.9V0.8h-9.9V20L125.8,20L125.8,20z M138,8.8V5.9
	c0-3.9-2.2-5.6-5.9-5.6c-4,0-5.8,1.9-5.8,6.1v7.9c0,3.9,1.6,6.1,5.5,6.1c4.4,0,6.3-2.3,6.3-5.6V12h-5v2.2c0,1.2,0.1,2.7-0.9,2.8
	c-0.7,0-0.9-0.6-0.9-1.7l0-9.5c0-1.2-0.3-2,1-2c0.8,0,0.7,0.9,0.7,2.5v2.6H138L138,8.8z M143.7,20v-8.5l3,8.5h5.2l-3.4-9.6l3.8-9.6
	l-5.2,0c0,0.1-3.4,8.6-3.4,8.6V0.8l-4.8,0V20L143.7,20L143.7,20L143.7,20z M168.4,4.3c2.1-0.2,1.7,0.5,1.7,2.4
	c0,1.2,0.4,2.3-0.9,2.3h-0.8L168.4,4.3L168.4,4.3L168.4,4.3z M168.4,12.5h0.8c1,0.1,0.8,0.9,0.9,2s-0.1,5.1,0,5.5h4.9
	c0,0,0.1-4.7,0-6.2c0.1-1.2-0.7-2.2-1.8-2.5l-0.2-0.2c1.8-0.9,2.1-2.8,2.1-4.9c0-3.8-1.8-5.3-5.3-5.3h-6.3V20h5L168.4,12.5
	L168.4,12.5L168.4,12.5z M108.9,20c1.3,0,2.7,0.2,3.8-0.5c1.3-0.8,2-2.3,1.9-3.8V5.7c0-1.9-0.2-3.2-1.9-4.2
	c-1.4-0.9-3.3-0.8-4.9-0.8h-4.7V20L108.9,20L108.9,20z M107.8,4.2c1.6-0.1,1.7,0.1,1.5,2.4v6.3c0.1,3.2,0.4,3.8-1.5,3.6V4.2
	L107.8,4.2z M162.9,20v-3.8h-5.2V12h4.8V8.1h-4.8V4.6h4.9V0.8h-9.9V20L162.9,20L162.9,20z M95.4,16.5c-0.3,2-2.1,1.6-3.6,1.6
	c-3.2,0-3.1-1.1-3-3.9c0-1.4,0.7-2.8,1.4-3L95.4,16.5L95.4,16.5L95.4,16.5z M98.9,19.9h2.5l-3.7-3.8v-5.7h-1.9c0,0.4,0,3.3,0,3.7
	l-5.6-5.9C89,7,89.3,6.6,89.2,5.3c-0.1-2.9,1.6-3,3-3c2,0,3,0.8,3,3.1l0.1,1.2l1.8,0V5.3c0-3.9-1.9-4.7-4.9-4.6
	c-3,0.1-4.9,0.7-4.9,4.6c0,2.6,0.2,3,1.5,4.6c-1.3,0.5-2,1.9-2.1,3.9c-0.1,5.7,1.9,6.1,4.9,6.1c2.1,0,4.3-0.1,5.3-1.9L98.9,19.9
	L98.9,19.9L98.9,19.9z M180,15.6c0.4,0.4,0.6,1,0.6,1.6c0,0.6-0.2,1.2-0.6,1.6c-0.8,0.9-2.2,0.9-3.1,0c0,0,0,0,0,0
	c-0.4-0.4-0.6-1-0.6-1.6c0-0.6,0.2-1.1,0.6-1.6C177.7,14.8,179.1,14.7,180,15.6C180,15.6,180,15.6,180,15.6L180,15.6z M180.3,15.4
	c-0.5-0.5-1.1-0.8-1.8-0.8c-0.7,0-1.3,0.3-1.8,0.8c-0.5,0.5-0.8,1.1-0.7,1.8c0,0.7,0.3,1.3,0.7,1.8c1,1,2.6,1,3.6,0c0,0,0,0,0,0
	c0.5-0.5,0.8-1.1,0.7-1.8C181,16.5,180.7,15.8,180.3,15.4L180.3,15.4L180.3,15.4z M178.8,17.1c-0.2,0.1-0.3,0.1-0.5,0.1h-0.4v-1h0.4
	c0.2,0,0.4,0,0.6,0.1c0.1,0.1,0.2,0.2,0.2,0.4C179.1,16.8,179,17,178.8,17.1L178.8,17.1L178.8,17.1z M177.4,18.6h0.5v-1.1h0.4
	c0.2,0,0.4,0,0.5,0.1c0.2,0.2,0.3,0.4,0.3,0.6v0.2l0,0.1c0,0,0,0,0,0s0,0,0,0h0.5l0,0c0,0,0-0.1,0-0.1c0-0.1,0-0.1,0-0.2V18
	c0-0.2-0.1-0.3-0.2-0.4c-0.1-0.2-0.3-0.3-0.5-0.3c0.1,0,0.3-0.1,0.4-0.1c0.2-0.1,0.3-0.3,0.3-0.6c0-0.3-0.1-0.6-0.4-0.7
	c-0.2-0.1-0.5-0.1-0.8-0.1h-1L177.4,18.6L177.4,18.6L177.4,18.6z M46.9,19.9v-3.8h-4.4V0.5h-4.8v19.4L46.9,19.9L46.9,19.9z
	 M50.5,19.9l0.5-3.7h1.6l0.6,3.7H58L55.5,0.5h-7l-3.2,19.4H50.5L50.5,19.9z M52.6,12.8h-1.7l0.7-5.5H52L52.6,12.8L52.6,12.8
	L52.6,12.8z M69.9,8.5V5.6c0-3.9-2.2-5.6-5.9-5.6c-4,0-5.8,1.9-5.8,6.1V14c0,3.9,1.6,6.1,5.5,6.1c4.4,0,6.3-2.3,6.3-5.6v-2.8h-5v2.2
	c0,1.2,0.1,2.7-0.9,2.8c-0.7,0-0.9-0.6-0.9-1.7l0-9.5c0-1.3-0.3-2,1-2c0.8,0,0.7,0.8,0.7,2.5v2.6L69.9,8.5L69.9,8.5z M75.5,19.9
	v-8.5l3,8.5h5.2l-3.4-9.6l3.8-9.6l-5.2,0c0,0.1-3.4,8.7-3.4,8.7V0.7l-4.8,0v19.2H75.5z M29.9,11.7c1.7-0.2,1.9,0,2,2.4
	c0.1,2.7-0.4,2.4-2,2.4V11.7L29.9,11.7L29.9,11.7z M29.9,4C31.4,4,32,3.9,32,6.2c0,2-0.3,2.2-2,2.1L29.9,4L29.9,4z M31.6,19.9
	c3.4,0,5.4-1.6,5.4-5.6c0-2.4-0.4-3.5-2.3-4.7V9.6c1.4-0.9,2.1-2.5,2-4.1c0-3.9-2.4-5.1-5.6-5.1h-6v19.4L31.6,19.9L31.6,19.9z
	 M16.6,0.7L5.8,19.9h10.9l5.5-9.6L16.6,0.7L16.6,0.7L16.6,0.7z M5.4,0.5h1.5L0.7,11.2L0,9.9L5.4,0.5L5.4,0.5z M8.2,0.5h1.4L2.1,13.6
	l-0.7-1.2L8.2,0.5L8.2,0.5z M11.1,0.5h1.4l-9,15.7l-0.7-1.2L11.1,0.5L11.1,0.5L11.1,0.5z M13.9,0.5h1.4L5,18.6l-0.7-1.3L13.9,0.5
	L13.9,0.5z M53.3,28.8l2.1,1.9l2,1.4c0.6,0.4,0.9,1.1,0.9,1.9c0.1,1-0.6,2-1.6,2.1c-0.1,0-0.3,0-0.4,0c-1.1,0-1.7-0.2-2-0.9
	c-0.3-0.6-0.4-1.2-0.4-1.9h-1.1c-0.1,2.5,1,3.7,3.3,3.7c2.1,0,3.2-1.1,3.2-3.3c0.1-0.9-0.3-1.7-0.9-2.4l-3.8-2.5
	c-0.4-0.5-0.6-1.1-0.5-1.7c-0.1-1.2,0.6-1.9,2.1-1.9c1.4,0,2,0.9,2,2.5h1.1c0-2.4-1-3.5-3-3.5c-2.3,0-3.4,1-3.3,3.1L53.3,28.8
	L53.3,28.8L53.3,28.8z M49.6,24.5v7.7c0,0.9-0.1,1.8-0.4,2.6c-0.4,0.8-1.2,1.3-2.1,1.2c-0.9,0.1-1.8-0.4-2.2-1.2l-0.4-2.6v-7.7h-1.1
	v8.4c0,2.7,1.2,4.1,3.7,4.1c2.3,0,3.4-1.4,3.4-4.1v-8.4H49.6z M34,30.6c-0.1,1.5,0.1,3,0.5,4.5c0.9,1.8,3,2.5,4.8,1.6
	c0.7-0.3,1.3-0.9,1.6-1.6c0.3-1.5,0.5-3,0.5-4.5c0-1.5-0.2-2.9-0.5-4.3c-0.9-1.8-3-2.5-4.8-1.6c-0.7,0.3-1.3,0.9-1.6,1.6
	C34.1,27.6,33.9,29.1,34,30.6L34,30.6z M40.3,30.6c0.1,1.3,0,2.7-0.4,4c-0.5,1.2-1.9,1.8-3.1,1.3c-0.6-0.2-1.1-0.7-1.3-1.3
	c-0.3-1.3-0.4-2.6-0.4-4c-0.1-1.3,0.1-2.6,0.4-3.8c0.5-1.2,1.9-1.8,3.1-1.3c0.6,0.2,1.1,0.7,1.3,1.3C40.2,28,40.4,29.3,40.3,30.6
	L40.3,30.6z M30.7,24.5v5.4h-4.8v-5.4h-1.1v12.2h1.1v-5.8h4.8v5.8h1.1V24.5H30.7L30.7,24.5z M94.5,24.5v12.2h2.7
	c1.7,0,2.8-0.5,3.4-1.5c0.6-1.4,0.9-3,0.7-4.6c0.1-1.6-0.1-3.2-0.5-4.7c-0.8-1.1-2-1.6-3.3-1.5H94.5L94.5,24.5z M96.8,25.5
	c1.5,0,2.5,0.2,2.8,0.9c0.5,1.1,0.7,2.3,0.7,3.6c0,2.6-0.2,4.2-0.6,4.8s-1.5,1-3.1,1h-1.2V25.5L96.8,25.5L96.8,25.5z M107.4,24.5
	v12.2h1v-5.7h2.1c1.8,0,2.8-1.2,2.8-3.6c0-2-0.9-3-2.7-3H107.4L107.4,24.5z M110.3,25.5c1.4,0,2,0.7,2,2.2c0,1.6-0.6,2.4-2,2.5h-2
	v-4.7H110.3z M84.4,30.6l-0.4,4c-0.5,1.2-1.9,1.8-3.1,1.3c-0.6-0.2-1.1-0.7-1.3-1.3c-0.3-1.3-0.4-2.6-0.4-4
	c-0.1-1.3,0.1-2.6,0.4-3.8c0.5-1.2,1.9-1.8,3.1-1.3c0.6,0.2,1.1,0.7,1.3,1.3L84.4,30.6L84.4,30.6z M85,26.2c-0.9-1.8-3-2.5-4.8-1.6
	c-0.7,0.3-1.3,0.9-1.6,1.6c-0.4,1.4-0.6,2.9-0.4,4.3c-0.2,1.5-0.1,3,0.4,4.5c0.9,1.8,3,2.5,4.8,1.6c0.7-0.3,1.3-0.9,1.6-1.6
	c0.4-1.4,0.6-3,0.5-4.5C85.6,29.1,85.4,27.6,85,26.2L85,26.2z M69,24.5v12.2h1v-5.8h4.8v5.8h1.1V24.5h-1.1v5.4H70v-5.4H69z
	 M67.1,24.5h-5.5v12.2h5.7v-1h-4.5v-4.8h4.2v-1h-4.2v-4.4h4.4L67.1,24.5L67.1,24.5L67.1,24.5z M87.7,24.5v12.2h5v-1h-4.1V24.5H87.7
	L87.7,24.5z M158,27.8c0-2.4-1-3.6-3.1-3.6c-1.4-0.2-2.7,0.7-3.1,2c-0.4,1.4-0.6,2.9-0.5,4.3c-0.1,1.5,0,3,0.5,4.5
	c0.4,1.3,1.7,2.1,3.1,2c2.1,0,3.2-1.2,3.2-3.8H157c-0.1,1.9-0.7,2.9-2.1,2.9c-1,0.1-1.9-0.5-2.2-1.5c-0.3-1.3-0.4-2.6-0.2-4
	c-0.2-1.3-0.1-2.6,0.2-3.8c0.3-0.9,1.2-1.6,2.2-1.5c1.4,0,2,0.9,2,2.6H158L158,27.8z M142.1,24.5v8.4c0,2.7,1.2,4.1,3.6,4.1
	s3.4-1.4,3.4-4.1v-8.4H148v7.7l-0.1,2.6c-0.7,1.2-2.3,1.6-3.6,0.9c-0.4-0.2-0.6-0.5-0.9-0.9c-0.3-0.8-0.4-1.7-0.2-2.6v-7.7H142.1z
	 M123.2,30.6c-0.1,1.5,0.1,3,0.4,4.5c0.5,1.3,1.8,2.1,3.2,2c1.4,0.1,2.8-0.7,3.3-2c0.3-1.5,0.4-3,0.4-4.5c0.1-1.5-0.1-2.9-0.4-4.3
	c-0.6-1.3-1.9-2.1-3.3-2c-1.4-0.1-2.7,0.7-3.2,2C123.3,27.7,123.2,29.1,123.2,30.6L123.2,30.6z M124.6,26.7c0.3-0.9,1.2-1.6,2.2-1.5
	c1-0.1,2,0.5,2.3,1.5c0.3,1.3,0.4,2.5,0.4,3.8c0.1,1.3,0,2.7-0.4,4c-0.4,1-1.3,1.6-2.3,1.5c-1,0.1-1.9-0.5-2.2-1.5
	c-0.3-1.3-0.4-2.6-0.2-4C124.2,29.3,124.3,28,124.6,26.7L124.6,26.7z M118.2,25.5c1.2,0,1.8,0.6,1.8,2c0.1,0.7-0.1,1.4-0.5,2
	l-1.8,0.5H116v-4.4H118.2z M114.9,24.5v12.2h1.1v-5.9h2c0.8-0.2,1.7,0.4,1.8,1.2c0,0,0,0,0,0l0.2,1.6l0.1,3.1h1v-1.5l-0.2-4
	c-0.3-0.6-1-0.9-1.6-0.9c1.2-0.4,1.8-1.4,1.8-3c0.1-0.8-0.1-1.6-0.6-2.2c-0.6-0.6-1.5-0.8-2.3-0.7L114.9,24.5L114.9,24.5z
	 M132.8,24.5v12.2h2.8c1.7,0,2.8-0.5,3.4-1.5c0.6-1.4,0.9-3,0.7-4.6c0.1-1.6-0.1-3.2-0.6-4.7c-0.5-1-1.6-1.5-3.2-1.5H132.8
	L132.8,24.5z M135.3,25.5c1.5,0,2.5,0.2,2.9,0.9c0.5,1.1,0.7,2.4,0.6,3.6c0,2.6-0.2,4.2-0.6,4.8s-1.4,1-2.9,1h-1.4V25.5L135.3,25.5
	L135.3,25.5z M168.4,27.1c0-1.2,0.7-1.9,2.2-1.9c1.4,0,2,0.9,2,2.5h1.1c0-2.4-1-3.5-3.1-3.5s-3.2,1-3.2,3.1c0,0.5,0.1,1,0.4,1.5
	c0.5,0.8,1.2,1.5,2.1,1.9l2.1,1.4c0.4,0.6,0.6,1.2,0.7,1.9c-0.1,1.4-0.7,2.1-2.1,2.1c-0.8,0.1-1.5-0.2-2-0.9
	c-0.3-0.6-0.4-1.2-0.4-1.9h-1.1c-0.1,2.5,1,3.7,3.3,3.7c2.1,0,3.2-1.1,3.3-3.3c0-0.9-0.4-1.7-1-2.4l-3.8-2.5
	C168.6,28.4,168.4,27.7,168.4,27.1L168.4,27.1L168.4,27.1z M166,24.5h-6.9v1h2.8v11.3h1.2V25.5h2.8V24.5L166,24.5z"/>
</svg>
