<?xml version="1.0" encoding="utf-8"?>
<!-- Generator: Adobe Illustrator 19.2.1, SVG Export Plug-In . SVG Version: 6.00 Build 0)  -->
<svg version="1.1" id="Layer_1" xmlns="http://www.w3.org/2000/svg" xmlns:xlink="http://www.w3.org/1999/xlink" x="0px" y="0px"
	 viewBox="0 0 142 42" style="enable-background:new 0 0 142 42;" xml:space="preserve">
<style type="text/css">
	.st0{fill:#8396AF;}
</style>
<path class="st0" d="M117.9,21.4c-0.7,0-1.5,0.3-2,0.8c-0.9,1.1-0.9,2.8,0,3.9c1.1,1.1,2.8,1.1,3.9,0c0,0,0,0,0,0
	c0.5-0.5,0.7-1.2,0.7-1.9c0-0.7-0.2-1.4-0.7-2C119.3,21.7,118.6,21.4,117.9,21.4z M118.3,14.7c-13.1,0-23.7,4.3-23.7,9.6
	s10.6,9.6,23.7,9.6s23.7-4.3,23.7-9.6S131.4,14.7,118.3,14.7L118.3,14.7z M102.2,28.2c-0.4,0.4-1.1,0.5-1.5,0.1c0,0-0.1-0.1-0.1-0.1
	c-0.2-0.2-0.3-0.5-0.3-0.9c0-0.3,0.1-0.6,0.3-0.9c0.2-0.2,0.5-0.4,0.8-0.4c0.3,0,0.6,0.1,0.8,0.4c0.2,0.2,0.3,0.5,0.3,0.9
	C102.6,27.7,102.4,28,102.2,28.2z M110.5,21.9c-0.6-0.3-1.2-0.4-1.8-0.4c-0.8,0-1.5,0.2-2.1,0.7c-1.1,1-1.3,2.7-0.3,3.8
	c0.1,0.1,0.2,0.2,0.3,0.3c0.6,0.5,1.3,0.7,2.1,0.7c0.7,0,1.4-0.2,2-0.5c0.4-0.1,0.6-0.4,0.8-0.7c0,0,0-0.1,0-0.2l0.2-0.1l1.2,1.9
	l-0.2,0.1c-0.1-0.1-0.2-0.1-0.3-0.1c-0.2,0.1-0.4,0.1-0.6,0.3c-0.5,0.3-1.1,0.6-1.7,0.8c-0.5,0.2-1.1,0.2-1.7,0.2
	c-1.1,0.1-2.2-0.3-3.1-1c-0.5-0.4-0.8-0.9-1.1-1.4c-0.3-0.6-0.4-1.3-0.4-2c-0.1-2.3,1.8-4.3,4.1-4.4c0.2,0,0.3,0,0.5,0
	c0.6,0,1.1,0.1,1.7,0.2c0.6,0.2,1.2,0.5,1.7,0.8c0.2,0.1,0.4,0.2,0.6,0.3c0.1,0,0.2-0.1,0.3-0.1l0.2,0.1l-1.2,1.8l-0.2-0.1
	c0,0,0-0.1,0-0.1c0,0,0-0.1,0-0.1C111.2,22.3,110.9,22,110.5,21.9z M121,27.5c-1.8,1.3-4.3,1.3-6.2,0c-1.8-1.6-2-4.5-0.4-6.3
	c0.1-0.1,0.2-0.2,0.4-0.4c0.9-0.7,2-1,3.1-1c1.1,0,2.2,0.3,3.1,1c1,0.8,1.6,2.1,1.5,3.4C122.5,25.5,121.9,26.7,121,27.5L121,27.5z
	 M133.6,20.2c-0.1,0-0.3,0.1-0.3,0.2c-0.1,0.1-0.1,0.2-0.1,0.4v6.8c0,0.1,0,0.2,0.1,0.4c0.1,0.1,0.2,0.2,0.3,0.2v0.2h-2.8v-0.2
	c0.1,0,0.3-0.1,0.3-0.2c0.1-0.1,0.1-0.2,0.1-0.4v-4.7l-3,5.5l-2.8-5.5v4.7c0,0.1,0,0.2,0.1,0.4c0.1,0.1,0.2,0.2,0.3,0.2v0.2h-2.6
	v-0.2c0.1,0,0.3-0.1,0.3-0.2c0.1-0.1,0.1-0.2,0.1-0.4v-6.8c0-0.1,0-0.2-0.1-0.4c-0.1-0.1-0.2-0.2-0.3-0.2V20h3.3v0.2
	c-0.2,0-0.3,0.2-0.3,0.4c0,0.3,0.1,0.5,0.2,0.8l1.9,3.8l2-3.7c0.2-0.2,0.3-0.5,0.3-0.8c0-0.2-0.1-0.4-0.3-0.4V20h3.2V20.2z M4.8,4.4
	C7.2,2,11,2,13.4,4.3c0,0,0.1,0.1,0.1,0.1c0.6,0.6,0.6,1.5,0,2.1c-0.1,0.1-0.2,0.2-0.4,0.3c-1.8,1.2-3.7-0.6-5.5,0
	c-1.6,0.6-2.4,3.1-2.9,5c-1.3,4.6-2.1,11.3,1.8,13.7c0.7,0.5,1.7,0.3,2.2-0.4C8.9,25,8.9,24.9,9,24.8c0.6-1.4,1.5-3.4,0.4-4.3
	c-0.4-0.2-0.8-0.5-1.1-0.9c-0.9-1.9,0.9-2.9,2-3.4c1.5-0.7,3.2,0,3.8,1.5c0.3,0.8,0.3,1.6,0,2.4c-0.3,0.2-0.5,0.5-0.8,0.7
	c-0.1,1.6-0.4,3.2-0.7,4.8c-0.2,1.2-1.1,1.7-1.6,2.6c-0.7,0.7-1.6,0.5-2.4,0.9c-3.5,1.9-7.5-0.9-8.2-6C-0.6,16.1,0.1,8.8,4.8,4.4
	 M19.6,18.2c-4-1.2,0.1-8,0.9-6.9C22.6,14.2,22.4,19,19.6,18.2 M18.4,23.1c1.2,0.8,2.8,0.6,3.8-0.4c2-2.8,3.4-6.1,2.6-10.1
	c-0.3-1.7-0.9-3.4-1.9-4.9c-1.4-2.1-4.1-2.9-5-0.2c-0.5,1.4-1.8,2.9-2.4,5.6C14.7,16.9,15.8,21.1,18.4,23.1L18.4,23.1z M38.1,23
	c-0.3,0-0.7-15.9-0.7-17.5c2.9,0.4,5.1,3.9,5.9,7.1c0.8,2.7-0.5,5.5-1.7,7.8C41.1,21.6,39.6,23.4,38.1,23 M35.1,27.1
	c1.8,0.9,3.5,0.2,5.1-0.9c4.9-3.1,8.6-11.6,4.9-18.4c-1.2-2.3-2.9-4.4-4.9-6.1c-1.3-1.1-2.9-1.7-4.6-1.7c-1.1-0.3-2.2,0.3-2.5,1.4
	C33,1.5,33,1.7,33,1.8c-0.1,0.3-0.1,0.7,0,1.1c0.4,0.6,0.7,1.2,1,1.9c0.6,5.8,0.9,11.6,0.8,17.4c0,0.9-1,1.2-1.3,1.9
	C33.3,25.3,33.9,26.5,35.1,27.1L35.1,27.1z M55.7,24.7c-0.3,0.9-5.7-0.1-5.7-2.4c0.1-4.3,3.9-3.4,6.2-4.5
	C57.1,20.4,56.1,22.1,55.7,24.7 M56.4,30.7c2.1,1.9,2.3-4.8,2.5-7.8c0.3-4.6,2.1-8.9,0.6-13.1c-1.7-4.7-7.4-3.3-10.2-0.9
	c-0.3,0.4,0,4.5,1.5,3.8c2-0.9,3.4-2.2,5.7-1.6c0.8,0.2,0.6,2.4,0.3,3.1c-0.1,0.1-5.5-1.6-8.6,3.9c-1,1.6-1.4,5.2-0.3,7
	c1.5,3.3,4.6,3.1,7.3,3.8C55.7,28.9,55.8,30.2,56.4,30.7L56.4,30.7z M64.4,17.8c-0.4-3.1,2.7-4.5,4.8-4.5c0,2.9-0.7,5.5-0.4,8.4
	C66.8,22.6,64.7,20.2,64.4,17.8 M60.6,18.5c0,3.6,2.4,5.4,4.2,7c1.4,1.2,2.9,0.7,4.4,0.7c0.9,0.2,0.9,3.4,2.5,3.1
	c0.7-0.1,1.2-0.6,1.5-1.2c-1.1-8.4-1.3-17.1,0.9-25c0-0.8-0.4-1.6-1.1-1.9c-0.9-0.5-2,0.5-2.5,1.7c-0.6,1.7-0.2,4.3-1.1,5.3
	C66.5,11.3,60.6,12.2,60.6,18.5L60.6,18.5z M78.5,17.8c-0.4-3.1,2.7-4.5,4.8-4.5c0,2.9-0.7,5.5-0.4,8.4
	C80.9,22.6,78.8,20.2,78.5,17.8 M74.7,18.5c0,3.6,2.4,5.4,4.2,7c1.4,1.2,2.9,0.7,4.4,0.7c0.9,0.2,0.9,3.4,2.5,3.1
	c0.7-0.1,1.3-0.6,1.5-1.2c-1.1-8.4-1.3-17.1,0.9-25c0-0.8-0.4-1.6-1.1-1.9c-0.9-0.5-2,0.5-2.5,1.7c-0.6,1.7-0.2,4.3-1.1,5.3
	C80.5,11.3,74.7,12.2,74.7,18.5L74.7,18.5z M89.9,6.4c0.8-1.5,2.8-1.7,3.4,0c0.9,2.5,0.2,5.4,0.6,8.4c0.2,0.8,0.6,0,0.8-0.2
	c1.1-3.2,1.9-6.9,4.1-8.6c1-0.7,3.4-0.3,2.4,2c-1.9,4.9-4.7,9.6-5.1,15.5c-0.2,3.5-2.9,13.7-4.7,16.8c-1.4,2.2-4.7,2.5-5.7,0
	c-0.6-1.5-1.1-3.7,0.2-4.7c1-0.8,2.2,0.5,2.4,1.9c2.7-2.7,2.9-8.1,3.6-12.3c0.4-2.7-1.3-4.9-1.5-7.4c-0.2-2.7-0.6-5.2-0.8-7.9
	C89.7,8.7,89.3,7.2,89.9,6.4 M110.4,6c0,0.5-0.1,1.1-0.4,1.5c-0.3,0.5-0.7,0.8-1.1,1.1c-1,0.5-2.1,0.5-3.1,0
	c-0.5-0.3-0.9-0.6-1.1-1.1c-0.6-0.9-0.6-2.1,0-3c0.3-0.5,0.7-0.8,1.1-1.1c1-0.5,2.1-0.5,3.1,0c0.5,0.3,0.9,0.6,1.1,1.1
	C110.2,5,110.4,5.5,110.4,6 M109.8,6c0-0.6-0.3-1.3-0.7-1.7c-1-1-2.5-1-3.5,0c-0.9,0.9-1,2.4,0,3.4c0,0,0,0,0,0c1,1,2.5,1,3.5,0
	C109.5,7.3,109.8,6.7,109.8,6L109.8,6z M105.9,4.4h1.5c0.3,0,0.6,0.1,0.9,0.2c0.2,0.2,0.3,0.4,0.3,0.7c0,0.2-0.1,0.4-0.2,0.6
	c-0.2,0.2-0.4,0.3-0.7,0.3c0.1,0,0.2,0.1,0.3,0.2c0.1,0.1,0.2,0.2,0.3,0.3c0,0,0.2,0.3,0.5,0.9h-1c-0.2-0.4-0.4-0.8-0.6-1.1
	c-0.1-0.1-0.2-0.2-0.3-0.2c0,0-0.1,0-0.1,0v1.3h-0.8L105.9,4.4L105.9,4.4z M106.7,5.8h0.4c0.2,0,0.3,0,0.5-0.1
	c0.1-0.1,0.1-0.2,0.1-0.3c0-0.1,0-0.2-0.1-0.3c-0.1-0.1-0.3-0.1-0.5-0.1h-0.4L106.7,5.8L106.7,5.8z"/>
</svg>
