<?xml version="1.0" encoding="utf-8"?>
<!-- Generator: Adobe Illustrator 19.2.1, SVG Export Plug-In . SVG Version: 6.00 Build 0)  -->
<svg version="1.1" id="Layer_1" xmlns="http://www.w3.org/2000/svg" xmlns:xlink="http://www.w3.org/1999/xlink" x="0px" y="0px"
	 viewBox="0 0 82 67" style="enable-background:new 0 0 82 67;" xml:space="preserve">
<style type="text/css">
	.st0{fill:#8396AF;}
</style>
<path class="st0" d="M45.6,0c1.7,4.4,3.3,8.7,5.1,13.1c2.1,5.4,4.3,10.8,6.6,16.5c-2.3-0.7-4.6-1.3-7-1.8c-3.1-0.5-4.8-2-5.6-5
	c-0.9-3.4-2.4-6.6-3.6-9.8c-0.2-0.5-0.4-1.1-0.8-1.9c-2.1,5.8-4.1,11.2-6.1,16.7c-1.7,4.6-3.4,9.2-5,13.8c-0.2,1-1.1,1.6-2.1,1.4
	c-2.7-0.1-5.3,0-8.3,0C24.3,28.5,29.9,14.2,35.4,0L45.6,0L45.6,0z M0,66.1c0.9-1.6,1.8-3.3,2.6-4.9c1.1-2.2,2.1-4.4,3.3-7
	c2,4.2,3.9,8.1,5.8,12.1c-1.3,0.5-2.2,0.2-2.6-1.1c-0.3-1.2-0.9-2-2.4-1.8c-1.5,0.3-3.4-0.7-4,1.6c-0.4,1.6-1.5,1.6-2.8,1.3L0,66.1
	L0,66.1z M5.9,58.1c-0.6,1.4-1.1,2.5-1.6,3.7h3.2C7,60.6,6.6,59.5,5.9,58.1z M82,59c-1.1,2.3-3.2,2.3-5.5,2.2c0,1.4-0.1,2.7,0,4
	c0.1,1.2-0.4,1.6-1.7,1.2V54.6c2.6,0.2,5.4-0.8,7.1,2.1V59L82,59z M76.8,56.5v3.1c2.3,0.1,3.1-0.3,3.1-1.5
	C80,56.7,79.1,56.3,76.8,56.5z M37.5,27.5c4.9,1.2,9.7,2.5,14.6,3.7c0.1,0,0.1,0,0.2,0c2.1,0.6,4.7,0.6,6.1,1.9s1.8,3.8,2.6,5.8
	c0.5,1.2,0.9,2.4,1.5,3.8c-3.4,0-6.5,0-9.7,0c-0.4-0.1-0.7-0.2-1-0.5c-4.8-4.8-9.5-9.6-14.2-14.4C37.5,27.7,37.5,27.6,37.5,27.5
	L37.5,27.5z M65.3,67c-1.3-2.6-2.4-4.8-3.7-7.5c-0.5,2.2-0.9,4-1.3,5.9c-0.2,1.1-0.7,1.5-2.1,1c0.9-3.9,1.8-7.8,2.8-12.2
	c1.5,3.2,2.8,5.9,4.3,8.9c1.4-3,2.7-5.8,4.2-8.9c1,4.3,1.9,8.2,2.9,12.1c-1.3,0.6-1.9,0.1-2.1-1.1c-0.3-1.8-0.8-3.5-1.2-5.6
	C67.7,62.2,66.6,64.4,65.3,67L65.3,67z M49.7,66.9c-3.4-0.2-6-3.2-5.8-6.7c0.2-3.4,3.2-6,6.7-5.8c3.3,0.2,5.8,3,5.8,6.3
	C56.3,64.3,53.3,67,49.7,66.9C49.8,66.9,49.7,66.9,49.7,66.9z M54.3,60.6c0-2.4-2-4.4-4.4-4.4c-2.5,0-4.5,2-4.5,4.5s2,4.5,4.5,4.5
	C52.4,65,54.3,63,54.3,60.6z M40.6,57.3c-3.1-1.6-5.4-1.5-6.9,0.3c-1.4,1.7-1.5,4.1-0.3,5.8c1.4,1.9,3.3,2.1,7.2,0.6
	c0.5,1.4-0.1,2.2-1.5,2.6c-2.7,0.9-5.7-0.1-7.5-2.3c-1.6-2.3-1.5-5.4,0.3-7.7c1.9-2.1,4.9-2.9,7.6-1.8
	C40.6,55.3,41.2,55.9,40.6,57.3z M24.3,54.6v10.2h4.2c0.4,1.2,0.3,1.8-1,1.8c-1.6-0.1-3.3,0-5,0V54.7C23,54.7,23.5,54.6,24.3,54.6
	L24.3,54.6z M15.6,64.8h4.3c0,0.6,0.1,1.1,0.1,1.7h-6.2V54.8c1.2-0.4,1.9-0.3,1.9,1.3C15.6,58.9,15.6,61.8,15.6,64.8L15.6,64.8z"/>
</svg>
