<svg xmlns="http://www.w3.org/2000/svg" width="166" height="37" viewBox="0 0 166 37">
  <defs>
    <style>
      .cls-1 {
        fill: #162b3f;
        fill-rule: evenodd;
      }
    </style>
  </defs>
  <path class="cls-1" d="M1611,2634.46a1.866,1.866,0,1,1-1.86-1.82A1.827,1.827,0,0,1,1611,2634.46Zm-3.26,0a1.4,1.4,0,1,0,1.4-1.46A1.405,1.405,0,0,0,1607.74,2634.46Zm1.11,0.95h-0.42v-1.82a2.343,2.343,0,0,1,1.33.08,0.462,0.462,0,0,1-.2.82v0.02a1.376,1.376,0,0,1,.47.9h-0.46a2.06,2.06,0,0,1-.14-0.44c-0.05-.33-0.3-0.29-0.58-0.29v0.73Zm0.02-1.03h0.2a0.342,0.342,0,0,0,.42-0.27c0-.16-0.13-0.27-0.39-0.27a1.056,1.056,0,0,0-.23.02v0.52Zm-150.98-5.3a12.925,12.925,0,1,0,12.89,12.93A12.91,12.91,0,0,0,1457.89,2629.08Zm0,24.17a11.245,11.245,0,1,1,11.35-11.24A11.293,11.293,0,0,1,1457.89,2653.25Zm49.86-20.42h-14.69l-10.12,13.37h15.28a6.186,6.186,0,0,0,4.92-2.45l1.4-1.86a1.471,1.471,0,0,0-.15-1.95l-0.1-.1a5.976,5.976,0,0,0,3.45-2.23l1.45-1.86A1.817,1.817,0,0,0,1507.75,2632.83Zm-10.26,8.69-1.02,1.35a1.331,1.331,0,0,1-1.06.53h-3.1l1.96-2.59h2.87A0.444,0.444,0,0,1,1497.49,2641.52Zm3.9-5.16-0.82,1.09a1.44,1.44,0,0,1-1.15.57h-3.04l1.81-2.4h2.83A0.463,0.463,0,0,1,1501.39,2636.36Zm28.6-3.53h-11.68a6.237,6.237,0,0,0-4.98,2.49l-6.03,7.97a1.811,1.811,0,0,0,1.44,2.91h11.62a6.351,6.351,0,0,0,5.07-2.52l6-7.93A1.823,1.823,0,0,0,1529.99,2632.83Zm-6.36,3.62-4.74,6.26a1.71,1.71,0,0,1-1.36.69h-2.04a0.44,0.44,0,0,1-.34-0.71l4.86-6.42a1.6,1.6,0,0,1,1.29-.65h1.92A0.516,0.516,0,0,1,1523.63,2636.45Zm28.76-3.62h-14.61l-10.11,13.37h14.61s2.21-2.8,2.12-2.8h-7.33l1.96-2.59h7.33l2.1-2.79h-7.32l1.81-2.4h7.25Zm4.07,0h7.35l-10.12,13.37h-7.34Zm19.05,13.37h-5.8l-1.49-6.68-5.06,6.68h-4.88l10.11-13.37h5.68l1.51,6.74,5.1-6.74h4.95Zm21.81-8.76h7.36l1.21-1.61a1.869,1.869,0,0,0-1.48-3h-11.52a6.342,6.342,0,0,0-5.06,2.53l-5.95,7.86a1.856,1.856,0,0,0,1.48,2.98h11.41a6.593,6.593,0,0,0,5.26-2.62l1.35-1.78h1.63l2.14-2.81h-9.01l-2.85,3.77a1.625,1.625,0,0,1-1.28.64H1590a0.471,0.471,0,0,1-.37-0.76l4.8-6.35a1.662,1.662,0,0,1,1.33-.67h1.99a0.476,0.476,0,0,1,.37.76Zm-107.58,13.72c-9.4.24-17.97,0.61-22.39,0.91l-4.69-8.85C1471.29,2651.59,1490.05,2650.13,1489.74,2651.16Zm-39.73,7.42c-1.6-1.42-.49-6.07,3.24-12.24a89.4,89.4,0,0,1,18.42-21.34,60.207,60.207,0,0,0-16.77,14.7c-8.16,10.06-10.83,19.53-7.38,21.96,1.45,1.03,6.41-.09,10.38-6.09C1455.65,2657.58,1451.77,2660.15,1450.01,2658.58Z" transform="translate(-1445 -2625)"/>
</svg>
