<svg xmlns="http://www.w3.org/2000/svg" width="122" height="47.94" viewBox="0 0 122 47.94">
  <defs>
    <style>
      .cls-1 {
        fill: #162b3f;
        fill-rule: evenodd;
      }
    </style>
  </defs>
  <path class="cls-1" d="M422.9,2632.15c0-.47-0.282-0.66-0.834-0.66H421.2v2.3h0.376v-0.99h0.354l0.59,0.99h0.425l-0.642-1.01A0.588,0.588,0,0,0,422.9,2632.15Zm-1.325.33v-0.67h0.453c0.225,0,.5.03,0.5,0.31,0,0.33-.248.36-0.53,0.36h-0.419Zm0.408-1.96a2.081,2.081,0,1,0,2.02,2.08A2.011,2.011,0,0,0,421.98,2630.52Zm0,3.8a1.6,1.6,0,0,1-1.59-1.72A1.59,1.59,0,1,1,421.98,2634.32Zm-97.018,11.97-4.176-15.47h-3.3l-4.146,15.47-4.115-15.47H305.9l5.778,21.3h3.361l4.145-15.47,4.086,15.47h3.358l5.781-21.3h-3.329Zm17.852,5.83h3.328v-9.31c0-4.67-1.816-5.89-4.51-5.89a11.479,11.479,0,0,0-4.3.86h-0.121l0.06-1.96v-5.22l-3.328.28v21.24h3.328v-11.75a9.315,9.315,0,0,1,2.634-.46c1.543,0,2.905.37,2.905,3.18v9.03Zm6.232,0h3.329v-14.99h-3.329v14.99Zm1.665-16.72c1.633,0,2-1.04,2-2.17s-0.272-2.14-2-2.14c-1.665,0-1.967,1.01-1.967,2.14S349.078,2635.4,350.711,2635.4Zm7.807,5.28a5.69,5.69,0,0,1,2.512-.61,12.808,12.808,0,0,1,1.875.18v-3.3a5.64,5.64,0,0,0-.695-0.03,6.153,6.153,0,0,0-4.086,1.44h-0.211l-0.454-1.23h-2.27v14.99h3.329v-11.44Zm9.137-10.08-3.327.28v21.24h3.327V2630.6Zm38.582,6.32c-4.722,0-6.689,2.81-6.689,7.79,0,4.66,1.724,7.72,6.626,7.72s6.6-3.06,6.6-7.72C412.771,2639.73,410.956,2636.92,406.237,2636.92Zm-0.122,12.85c-2.662,0-3.208-2.35-3.208-5.06,0-2.93.667-5.16,3.359-5.16,2.662,0,3.118,2.32,3.118,5.16S408.777,2649.77,406.115,2649.77Zm8.865,2.35h3.327V2630.6l-3.327.28v21.24Zm-22.854-31.31c-2.777-2.97-13.147,2.67-23.728,11.48v1.14c10.363-8.72,20.118-13.85,22.366-11.45,1.144,1.22.138,5.05-2.449,9.49a3.161,3.161,0,0,0-1.165,1.08c-1.478,2.14-3.276,4.49-5.27,6.88a4.522,4.522,0,0,0-4.208-2.51,9.672,9.672,0,0,0-4.358,1.31h-0.151l-0.273-1.09h-2.511v14.11c-12.211,10.92-23.354,17.22-25.774,14.63-1.507-1.61.966-6.82,5.475-13.01h-1.249c-4.782,6.58-7.372,12.26-5.459,14.31,2.936,3.13,15.019-3.26,27.06-13.58-0.019.01-.035,0.03-0.053,0.04v5.63l3.327-.37v-6.87H373.8a15.929,15.929,0,0,0,2.9.31c3.874,0,6.205-2.6,6.205-7.85a14.876,14.876,0,0,0-.227-2.69c-0.212.23-.441,0.47-0.662,0.7a61.923,61.923,0,0,0,6.846-8.37c0.824-1.26.858-2.15,0.513-2.55C392.611,2626.51,393.773,2622.57,392.126,2620.81Zm-18.563,27.51c0.113-3.21.113-4.77,0.113-7.74a7.828,7.828,0,0,1,2.481-.42c1.717,0,2.83.5,3.226,2.17-1.767,1.97-3.646,3.92-5.585,5.77C373.719,2648.17,373.642,2648.24,373.563,2648.32Zm5.943-3.22c-0.23,3.4-1.517,4.31-3.379,4.31-0.375,0-.708-0.01-1.032-0.02,0,0.01,0,.01-0.005.01,0.062-.06.121-0.11,0.183-0.17,1.513-1.44,2.934-2.82,4.263-4.16Zm-43.644-19.17a4.07,4.07,0,0,0,.877-0.67,1.573,1.573,0,0,0,.417-0.71,1.134,1.134,0,0,0-.069-0.73,2.053,2.053,0,0,0-.565-0.71,5.016,5.016,0,0,0-1.052-.69,11.613,11.613,0,0,0-1.516-.64c-0.579-.2-1.229-0.39-1.944-0.57s-1.491-.33-2.318-0.47-1.713-.26-2.633-0.37-1.882-.18-2.869-0.24-2-.1-3.02-0.11-2.053-.01-3.082.02-2.046.09-3.046,0.17-1.978.17-2.918,0.3-1.845.26-2.7,0.43-1.651.35-2.386,0.55a17.915,17.915,0,0,0-2,.66,9.953,9.953,0,0,0-1.537.74,4.424,4.424,0,0,0-1.019.81,1.84,1.84,0,0,0-.465.85,1.315,1.315,0,0,0,.119.86,2.6,2.6,0,0,0,.706.86,6.97,6.97,0,0,0,1.284.82,15.365,15.365,0,0,0,1.832.75c0.7,0.24,1.479.46,2.334,0.67s1.782,0.39,2.773.55,2.038,0.31,3.129.43,2.228,0.21,3.4.28l0.508,0.03a0.871,0.871,0,0,0,.449-0.08,0.437,0.437,0,0,0,.28-0.32,0.388,0.388,0,0,0-.242-0.34,1.134,1.134,0,0,0-.442-0.11c-0.6-.04-1.187-0.08-1.765-0.14-0.743-.07-1.467-0.15-2.166-0.25s-1.365-.21-2-0.33-1.227-.25-1.786-0.39c-0.458-.12-0.89-0.24-1.29-0.37a9.881,9.881,0,0,1-2.589-1.18,3.38,3.38,0,0,1-.652-0.57,1.576,1.576,0,0,1-.336-0.58,1.08,1.08,0,0,1-.023-0.58,1.488,1.488,0,0,1,.288-0.58,3.244,3.244,0,0,1,.59-0.55,5.951,5.951,0,0,1,.869-0.52c0.332-.16.712-0.32,1.131-0.48q0.343-.12.725-0.24c0.458-.14.951-0.28,1.478-0.4,0.281-.06.571-0.12,0.872-0.18,0.55-.11,1.129-0.21,1.733-0.3s1.228-.17,1.87-0.23,1.283-.11,1.945-0.15,1.327-.07,2-0.08,1.329-.02,1.993-0.01,1.316,0.04,1.962.07,1.27,0.08,1.883.14,1.2,0.13,1.773.21,1.11,0.17,1.626.27a18.591,18.591,0,0,1,2.7.69,7.789,7.789,0,0,1,1.824.84,2,2,0,0,1,.832.93,0.97,0.97,0,0,1-.18.93,3.211,3.211,0,0,1-1.138.86,11.247,11.247,0,0,1-1.957.73c-0.507.14-1.065,0.26-1.663,0.38a0.756,0.756,0,0,0,.285-0.48,0.4,0.4,0,0,0-.3-0.43,1.82,1.82,0,0,0-1.155.1q-0.264.09-.549,0.18c-0.379.11-.788,0.21-1.218,0.29s-0.878.16-1.341,0.23-0.939.11-1.42,0.14-0.968.06-1.451,0.06c-0.144.01-.289,0.01-0.434,0.01-0.431,0-.857-0.01-1.279-0.02-0.6-.02-1.19-0.05-1.756-0.09s-1.11-.1-1.625-0.16-1-.14-1.451-0.22-0.862-.18-1.235-0.28c-0.348-.09-0.66-0.19-0.932-0.29a1.066,1.066,0,0,0-.432-0.08,0.433,0.433,0,0,0-.386.16,0.353,0.353,0,0,0,.1.39,1.015,1.015,0,0,0,.362.24,2.025,2.025,0,0,1,.2.08q0.463,0.18,1,.33c0.366,0.11.755,0.2,1.165,0.29s0.851,0.17,1.3.24,0.932,0.13,1.418.18,1,0.09,1.509.12,1.041,0.05,1.567.06,1.069,0,1.6-.02,1.068-.04,1.591-0.08c0.386-.03.767-0.07,1.141-0.11l0.276-.03a0.491,0.491,0,0,0,.4.36,1.425,1.425,0,0,0,.579.06c0.819-.06,1.62-0.14,2.39-0.24s1.534-.21,2.247-0.35,1.378-.28,2-0.45a14.115,14.115,0,0,0,1.681-.54A9.3,9.3,0,0,0,335.862,2625.93Zm-14.349-1.29a0.865,0.865,0,0,0-.317-0.26,2.988,2.988,0,0,0-.52-0.2,4.82,4.82,0,0,0-.635-0.13,6.6,6.6,0,0,0-.669-0.08c-0.159,0-.321-0.01-0.484-0.01s-0.328.01-.487,0.01a6.588,6.588,0,0,0-.667.08,4.737,4.737,0,0,0-.636.13,2.957,2.957,0,0,0-.52.2,0.887,0.887,0,0,0-.318.26,0.3,0.3,0,0,0-.04.29,0.7,0.7,0,0,0,.291.31,2.738,2.738,0,0,0,.648.3,6.963,6.963,0,0,0,1,.25c0.4,0.07.837,0.13,1.3,0.17,0.241,0.02.487,0.04,0.736,0.05s0.516,0.02.777,0.02h0.159c0.23,0,.461,0,0.689-0.01,0.291,0,.58-0.02.864-0.04,0.592-.04,1.16-0.1,1.685-0.18a12.219,12.219,0,0,0,1.487-.31,6.4,6.4,0,0,0,1.136-.43,1.689,1.689,0,0,0,.652-0.52,0.594,0.594,0,0,0,.11-0.33,0.5,0.5,0,0,0-.052-0.23,1.442,1.442,0,0,0-.569-0.58,5.473,5.473,0,0,0-1.195-.52,12.934,12.934,0,0,0-1.771-.44c-0.687-.12-1.443-0.22-2.234-0.29-0.821-.07-1.681-0.11-2.542-0.12h-0.259a19.041,19.041,0,0,0-7.527,1.38,1.676,1.676,0,0,0-.424.29,0.389,0.389,0,0,0-.154.43,0.5,0.5,0,0,0,.462.17,1.25,1.25,0,0,0,.5-0.11,19.612,19.612,0,0,1,7.152-1.21h0.1c0.3,0,.6.01,0.886,0.03s0.561,0.04.824,0.07,0.508,0.08.739,0.12,0.441,0.09.633,0.15a3.006,3.006,0,0,1,.513.18,2.148,2.148,0,0,1,.387.19,1.686,1.686,0,0,1,.251.2,0.527,0.527,0,0,1,.12.21,0.331,0.331,0,0,1-.006.2,0.557,0.557,0,0,1-.124.19,1.28,1.28,0,0,1-.224.17,1.908,1.908,0,0,1-.307.14,3.318,3.318,0,0,1-.372.12c-0.131.03-.271,0.06-0.416,0.09l-0.438.06h-0.067c-0.071.01-.141,0.01-0.213,0.02a0.473,0.473,0,0,0,.13-0.19A0.289,0.289,0,0,0,321.513,2624.64Zm69.805,12.28c4.721,0,6.537,2.81,6.537,7.79,0,4.66-1.695,7.72-6.6,7.72s-6.627-3.06-6.627-7.72C384.63,2639.73,386.6,2636.92,391.318,2636.92Zm3.147,7.79c0-2.84-.455-5.16-3.116-5.16-2.694,0-3.361,2.23-3.361,5.16,0,2.71.546,5.06,3.209,5.06S394.465,2647.54,394.465,2644.71Zm27.515-10.03a2.081,2.081,0,1,1,2.02-2.08A1.991,1.991,0,0,1,421.98,2634.68Zm0-3.8a1.613,1.613,0,0,0-1.59,1.72A1.59,1.59,0,1,0,421.98,2630.88Zm-0.408,2.91H421.2v-2.3h0.867c0.552,0,.834.19,0.834,0.66a0.588,0.588,0,0,1-.6.63l0.642,1.01h-0.425l-0.59-.99h-0.354v0.99Zm0.419-1.31c0.282,0,.53-0.03.53-0.36,0-.28-0.271-0.31-0.5-0.31h-0.453v0.67h0.419Zm-89.585-1.66-5.78,21.3h-3.358l-4.086-15.47-4.145,15.47h-3.361l-5.778-21.3h3.328l4.115,15.47,4.146-15.47h3.3l4.176,15.47,4.116-15.47h3.328Zm1.541,0.06,3.328-.28v5.22l-0.06,1.96h0.121a11.479,11.479,0,0,1,4.3-.86c2.694,0,4.51,1.22,4.51,5.89v9.31h-3.329v-9.03c0-2.81-1.361-3.18-2.9-3.18a9.315,9.315,0,0,0-2.634.46v11.75h-3.328v-21.24Zm16.764,0.21c1.725,0,2,1.01,2,2.14s-0.364,2.17-2,2.17-1.967-1.04-1.967-2.17S349.046,2631.09,350.711,2631.09Zm-1.665,6.04h3.329v14.99h-3.329v-14.99Zm6.143,0h2.269l0.455,1.23h0.211a6.151,6.151,0,0,1,4.086-1.44,5.64,5.64,0,0,1,.695.03v3.3a12.809,12.809,0,0,0-1.876-.18,5.689,5.689,0,0,0-2.511.61v11.44h-3.329v-14.99Zm9.137,14.99v-21.24l3.329-.28v21.52h-3.329Zm41.91-15.2c4.72,0,6.535,2.81,6.535,7.79,0,4.66-1.694,7.72-6.6,7.72s-6.626-3.06-6.626-7.72C399.548,2639.73,401.515,2636.92,406.236,2636.92Zm3.147,7.79c0-2.84-.455-5.16-3.117-5.16-2.692,0-3.359,2.23-3.359,5.16,0,2.71.545,5.06,3.207,5.06S409.383,2647.54,409.383,2644.71Zm5.6,7.41v-21.24l3.327-.28v21.52H414.98Zm-22.856-31.31c-2.775-2.97-13.146,2.67-23.727,11.48v1.14c10.364-8.72,20.119-13.85,22.367-11.45,1.144,1.22.138,5.05-2.449,9.49a3.17,3.17,0,0,0-1.166,1.08A104.455,104.455,0,0,1,373.8,2648.1c-13.487,12.83-26.548,20.61-29.193,17.78-1.507-1.61.965-6.82,5.475-13.01h-1.25c-4.782,6.58-7.372,12.26-5.458,14.31,3.332,3.55,18.44-5.15,31.9-17.95,6.1-5.8,10.735-10.73,13.592-15.1,0.824-1.26.858-2.15,0.513-2.55C392.611,2626.51,393.773,2622.57,392.124,2620.81Zm-18.448,19.77a7.828,7.828,0,0,1,2.481-.42c1.717,0,2.83.5,3.226,2.17,0.864-.96,1.7-1.93,2.5-2.89a4.535,4.535,0,0,0-4.212-2.52,9.672,9.672,0,0,0-4.358,1.31h-0.151l-0.273-1.09h-2.511v14.11q1.582-1.41,3.184-2.93C373.676,2645.11,373.676,2643.55,373.676,2640.58Zm5.83,4.52c-0.23,3.4-1.518,4.31-3.379,4.31-0.375,0-.708-0.01-1.032-0.02-1.558,1.48-3.137,2.9-4.716,4.25v5.63l3.327-.37v-6.87H373.8a15.929,15.929,0,0,0,2.9.31c3.874,0,6.2-2.6,6.2-7.85a14.882,14.882,0,0,0-.226-2.69Q381.2,2643.405,379.506,2645.1Zm-50.8-18.21a0.756,0.756,0,0,0,.285-0.48,0.4,0.4,0,0,0-.3-0.43,1.82,1.82,0,0,0-1.155.1q-0.264.09-.549,0.18c-0.379.11-.788,0.21-1.218,0.29s-0.878.16-1.341,0.23-0.939.11-1.42,0.14-0.968.06-1.451,0.06c-0.144.01-.289,0.01-0.434,0.01-0.431,0-.857-0.01-1.279-0.02-0.6-.02-1.19-0.05-1.756-0.09s-1.11-.1-1.625-0.16-1-.14-1.451-0.22-0.862-.18-1.235-0.28c-0.348-.09-0.66-0.19-0.932-0.29a1.066,1.066,0,0,0-.432-0.08,0.433,0.433,0,0,0-.386.16,0.353,0.353,0,0,0,.1.39,1.015,1.015,0,0,0,.362.24,2.025,2.025,0,0,1,.2.08q0.463,0.18,1,.33c0.366,0.11.755,0.2,1.165,0.29s0.851,0.17,1.3.24,0.932,0.13,1.418.18,1,0.09,1.509.12,1.041,0.05,1.567.06,1.069,0,1.6-.02,1.068-.04,1.591-0.08c0.386-.03.767-0.07,1.141-0.11l0.276-.03a0.491,0.491,0,0,0,.4.36,1.425,1.425,0,0,0,.579.06c0.819-.06,1.62-0.14,2.39-0.24s1.534-.21,2.247-0.35,1.378-.28,2-0.45a14.174,14.174,0,0,0,1.681-.54,9.3,9.3,0,0,0,1.3-.61,4.07,4.07,0,0,0,.877-0.67,1.591,1.591,0,0,0,.417-0.71,1.134,1.134,0,0,0-.069-0.73,2.053,2.053,0,0,0-.565-0.71,5.043,5.043,0,0,0-1.052-.69,11.613,11.613,0,0,0-1.516-.64q-0.87-.3-1.944-0.57c-0.714-.17-1.491-0.33-2.319-0.47s-1.712-.26-2.632-0.37-1.882-.18-2.869-0.24-2-.1-3.02-0.11-2.053-.01-3.082.02-2.046.09-3.046,0.17-1.978.17-2.918,0.3-1.845.26-2.7,0.43-1.651.35-2.386,0.55a17.915,17.915,0,0,0-2,.66,9.953,9.953,0,0,0-1.537.74,4.424,4.424,0,0,0-1.019.81,1.84,1.84,0,0,0-.465.85,1.315,1.315,0,0,0,.119.86,2.6,2.6,0,0,0,.706.86,6.97,6.97,0,0,0,1.284.82,15.365,15.365,0,0,0,1.832.75c0.7,0.24,1.479.46,2.334,0.67s1.782,0.39,2.773.55,2.038,0.31,3.129.43,2.228,0.21,3.4.28l0.508,0.03a0.871,0.871,0,0,0,.449-0.08,0.437,0.437,0,0,0,.28-0.32,0.388,0.388,0,0,0-.242-0.34,1.134,1.134,0,0,0-.442-0.11c-0.6-.04-1.187-0.08-1.765-0.14-0.743-.07-1.467-0.15-2.166-0.25s-1.365-.21-2-0.33-1.227-.25-1.786-0.39c-0.458-.12-0.89-0.24-1.29-0.37a9.881,9.881,0,0,1-2.589-1.18,3.38,3.38,0,0,1-.652-0.57,1.576,1.576,0,0,1-.336-0.58,1.08,1.08,0,0,1-.023-0.58,1.488,1.488,0,0,1,.288-0.58,3.244,3.244,0,0,1,.59-0.55,5.951,5.951,0,0,1,.869-0.52c0.332-.16.712-0.32,1.131-0.48q0.343-.12.725-0.24c0.458-.14.951-0.28,1.478-0.4,0.281-.06.571-0.12,0.872-0.18,0.55-.11,1.129-0.21,1.733-0.3s1.228-.17,1.87-0.23,1.283-.11,1.945-0.15,1.327-.07,2-0.08,1.329-.02,1.993-0.01,1.316,0.04,1.962.07,1.27,0.08,1.883.14,1.2,0.13,1.773.21,1.11,0.17,1.626.27a18.625,18.625,0,0,1,2.7.69,7.809,7.809,0,0,1,1.824.84,2.01,2.01,0,0,1,.832.93,0.97,0.97,0,0,1-.18.93,3.22,3.22,0,0,1-1.138.86,11.247,11.247,0,0,1-1.957.73C329.858,2626.65,329.3,2626.77,328.7,2626.89Zm-16.719-2.7a1.25,1.25,0,0,1-.5.11,0.5,0.5,0,0,1-.462-0.17,0.389,0.389,0,0,1,.154-0.43,1.676,1.676,0,0,1,.424-0.29,19.041,19.041,0,0,1,7.527-1.38h0.259c0.861,0.01,1.721.05,2.542,0.12,0.791,0.07,1.547.17,2.234,0.29a12.934,12.934,0,0,1,1.771.44,5.473,5.473,0,0,1,1.195.52,1.442,1.442,0,0,1,.569.58,0.5,0.5,0,0,1,.052.23,0.594,0.594,0,0,1-.11.33,1.689,1.689,0,0,1-.652.52,6.4,6.4,0,0,1-1.136.43,12.219,12.219,0,0,1-1.487.31c-0.525.08-1.093,0.14-1.685,0.18-0.284.02-.573,0.04-0.864,0.04-0.228.01-.459,0.01-0.689,0.01h-0.159c-0.261,0-.52,0-0.777-0.02s-0.5-.03-0.736-0.05c-0.458-.04-0.9-0.1-1.3-0.17a6.963,6.963,0,0,1-1-.25,2.738,2.738,0,0,1-.648-0.3,0.7,0.7,0,0,1-.291-0.31,0.3,0.3,0,0,1,.04-0.29,0.887,0.887,0,0,1,.318-0.26,2.957,2.957,0,0,1,.52-0.2,4.737,4.737,0,0,1,.636-0.13,6.588,6.588,0,0,1,.667-0.08c0.159,0,.323-0.01.487-0.01s0.325,0.01.484,0.01a6.6,6.6,0,0,1,.669.08,4.82,4.82,0,0,1,.635.13,2.988,2.988,0,0,1,.52.2,0.865,0.865,0,0,1,.317.26,0.289,0.289,0,0,1,.04.29,0.473,0.473,0,0,1-.13.19c0.072-.01.142-0.01,0.213-0.02H321.7l0.438-.06c0.145-.03.285-0.06,0.416-0.09a3.318,3.318,0,0,0,.372-0.12,1.908,1.908,0,0,0,.307-0.14,1.28,1.28,0,0,0,.224-0.17,0.557,0.557,0,0,0,.124-0.19,0.331,0.331,0,0,0,.006-0.2,0.527,0.527,0,0,0-.12-0.21,1.686,1.686,0,0,0-.251-0.2,2.148,2.148,0,0,0-.387-0.19,3.006,3.006,0,0,0-.513-0.18c-0.192-.06-0.4-0.1-0.633-0.15s-0.478-.09-0.739-0.12-0.539-.06-0.824-0.07-0.583-.03-0.886-0.03h-0.1A19.612,19.612,0,0,0,311.984,2624.19Zm68.165,33.76H379.52v-1.26h-1.144v1.26h-0.629v-2.93h0.629v1.16h1.144v-1.16h0.629v2.93Zm0.8-1.47a1.348,1.348,0,1,1,1.336,1.51A1.252,1.252,0,0,1,380.951,2656.48Zm2.014,0c0-.78-0.254-1.02-0.666-1.02s-0.673.28-.686,1.02,0.253,1.03.674,1.03S382.965,2657.26,382.965,2656.48Zm1.48-1.46h0.733l0.87,2.19h0.025l0.837-2.19H387.6l0.163,2.93h-0.636l-0.075-1.9h-0.042l-0.062.2-0.658,1.7h-0.562l-0.633-1.69-0.062-.2H385l-0.108,1.89h-0.612Zm4.008,0H390.3v0.52h-1.22v0.64h1.072v0.51H389.08v0.73h1.25v0.53h-1.877v-2.93Zm3.257,2.86,1.036-2.88h0.616l1.087,2.88v0.07h-0.695l-0.242-.66H392.6l-0.213.66H391.71v-0.07Zm1.686-1.01-0.292-1.01-0.032-.16H393.03l-0.034.16-0.3,1.01h0.7Zm1.7-1.85h0.79c0.858,0,1.275.2,1.275,0.95a0.933,0.933,0,0,1-1.121.97h-0.316v1.01H395.1v-2.93Zm0.628,1.47h0.228a0.442,0.442,0,0,0,.55-0.48,0.427,0.427,0,0,0-.52-0.48h-0.258v0.96Zm2-1.47h0.791c0.857,0,1.273.2,1.273,0.95a0.933,0.933,0,0,1-1.12.97H398.35v1.01h-0.628v-2.93Zm0.628,1.47h0.23a0.442,0.442,0,0,0,.549-0.48,0.427,0.427,0,0,0-.52-0.48H398.35v0.96Zm2.08-1.47h0.629v2.4h1.249v0.53H400.43v-2.93Zm2.518,2.93v-2.93h0.628v2.93h-0.628Zm1.318-.07L405.3,2655h0.617l1.085,2.88v0.07H406.31l-0.242-.66h-0.91l-0.213.66h-0.679v-0.07Zm1.686-1.01-0.291-1.01-0.034-.16h-0.04l-0.035.16-0.3,1.01h0.7Zm1.7-1.85h0.55l1.074,1.54,0.149,0.25h0.038v-1.79h0.629v2.93h-0.538l-1.1-1.6-0.124-.21h-0.046v1.81h-0.629v-2.93Zm5.456,2.88a4.651,4.651,0,0,1-.758.09,1.284,1.284,0,0,1-1.473-1.48,1.406,1.406,0,0,1,1.6-1.53,2.024,2.024,0,0,1,.6.09v0.53a2.82,2.82,0,0,0-.612-0.08,0.967,0.967,0,0,0-.033,1.93,2.965,2.965,0,0,0,.679-0.1v0.55Zm0.693-2.88h1.848v0.52h-1.219v0.64h1.07v0.51h-1.07v0.73h1.249v0.53H413.8v-2.93Zm2.563,2.42a4.174,4.174,0,0,0,.87.13c0.354,0,.587-0.07.587-0.33,0-.62-1.523-0.46-1.523-1.44,0-.68.549-0.86,1.24-0.86a3.054,3.054,0,0,1,.733.1v0.54a2.507,2.507,0,0,0-.812-0.13c-0.379,0-.566.08-0.566,0.3,0,0.52,1.548.43,1.548,1.49,0,0.67-.528.81-1.244,0.81a4.478,4.478,0,0,1-.833-0.1v-0.51Z" transform="translate(-302 -2620.03)"/>
</svg>
