<svg xmlns="http://www.w3.org/2000/svg" width="208" height="35" viewBox="0 0 208 35">
  <defs>
    <style>
      .cls-1 {
        fill: #162b3f;
        fill-rule: evenodd;
      }
    </style>
  </defs>
  <path class="cls-1" d="M1407,2639.68h-15.2l3.76-13.67-12.93,13.67h-60.66s-0.23,0-.22.13c0,0.1.09,0.13,0.22,0.13l59.53,0.94-7.46,7.89s-0.14.13-.06,0.2a0.162,0.162,0,0,0,.22-0.06l8.45-8.01,7.55,0.12-1.43,6.35-24.41,12.88s-0.19.08-.12,0.19a0.179,0.179,0,0,0,.23.02l23.98-11.72-2.71,12.04s-0.06.19,0.06,0.22a0.165,0.165,0,0,0,.19-0.15l3.46-12.59,17.55-8.58m-23.07,0,8.36-7.91-1.79,7.91h-6.57Zm7.5,1.36,9.07,0.14-10.66,5.62Zm-191.01,3.13h2.65l-1.04,4.8h2.43l-0.38,1.76H1199l1.42-6.56m11.88,3.28c0.32-1.48.66-1.74,1.09-1.74s0.66,0.26.33,1.74c-0.32,1.52-.68,1.75-1.09,1.75s-0.66-.23-0.33-1.75m-2.74,0c-0.44,2.05.4,3.46,2.7,3.46a4.08,4.08,0,0,0,4.2-3.46c0.45-2.04-.4-3.45-2.7-3.45A4.088,4.088,0,0,0,1209.56,2647.45Zm18.23,0.86a3.5,3.5,0,0,1-3.69,2.6c-2.34,0-3.12-1.4-2.67-3.48a4.025,4.025,0,0,1,4.17-3.43c1.69,0,2.97.67,2.56,2.6h-2.42c0.12-.75-0.13-0.89-0.45-0.89-0.68,0-.9.69-1.13,1.74-0.21,1-.32,1.75.35,1.75a0.9,0.9,0,0,0,.8-0.89h2.48m6.72-4.14h2.59l-0.61,2.82h0.02l1.97-2.82h2.79l-2.45,3.09,1.28,3.47h-2.87l-0.9-2.94h-0.02l-0.63,2.94h-2.59l1.42-6.56m15.26,4.15h-1.13l-0.53,2.41h-2.64l1.42-6.56h2.64l-0.48,2.22h1.13l0.48-2.22h2.65l-1.42,6.56h-2.65l0.53-2.41m9.7-4.15h5.08l-0.37,1.71h-2.55l-0.15.7h2.35l-0.37,1.71h-2.35l-0.16.74h2.63l-0.37,1.7h-5.16l1.42-6.56m11.4,0h5.08l-0.37,1.71h-2.54l-0.16.7h2.35l-0.36,1.71h-2.35l-0.16.74h2.62l-0.37,1.7h-5.16l1.42-6.56m13.71,1.49h0.26a0.714,0.714,0,0,1,.75.42,2.616,2.616,0,0,1-.06,1.37,3.128,3.128,0,0,1-.54,1.37,1.1,1.1,0,0,1-.93.42h-0.26l0.78-3.58m-3.69,5.07h3.3a3.962,3.962,0,0,0,4.06-3.2c0.42-1.95-.13-3.36-2.8-3.36h-3.14Zm24.94-4.69h-0.02l-1.96,4.69h-2.43l0.08-4.69h-0.02l-1.02,4.69h-2.23l1.41-6.56h3.68l-0.12,3.91h0.02l1.58-3.91h3.67l-1.42,6.56h-2.24l1.02-4.69m10.39,2.04,1.11-2.47h0.02v2.47h-1.13m-3.79,2.65h2.54l0.5-1.05h1.91l0.04,1.05h2.73l-0.73-6.56h-3.43Zm16.99-3.82,0.27-1.25h0.25c0.51,0,.83.1,0.73,0.58a0.9,0.9,0,0,1-1.02.67h-0.23m-3.42,3.82h2.6l0.5-2.33h0.31c0.43,0,.56.12,0.55,0.45a13.58,13.58,0,0,0-.08,1.88h2.6a20.884,20.884,0,0,1,.1-2.48,0.856,0.856,0,0,0-.95-0.83v-0.02a1.932,1.932,0,0,0,1.66-1.57c0.27-1.23-.48-1.66-1.91-1.66h-3.95Zm14.85-4.8h-1.65l0.39-1.76h5.93l-0.37,1.76h-1.66l-1.03,4.8h-2.65l1.04-4.8m10.75-1.76h2.65l-1.42,6.56h-2.65l1.42-6.56m9.09,0h3.18l0.55,3.97h0.02l0.86-3.97h2.15l-1.42,6.56h-3.18l-0.54-3.99h-0.03l-0.87,3.99h-2.14l1.42-6.56" transform="translate(-1199 -2626)"/>
</svg>
