<svg xmlns="http://www.w3.org/2000/svg" width="118" height="32" viewBox="0 0 118 32">
  <defs>
    <style>
      .cls-1 {
        fill: #162b3f;
        fill-rule: evenodd;
      }
    </style>
  </defs>
  <path class="cls-1" d="M1067.78,2658.21h16.2a7.463,7.463,0,0,0,6.01-2.9,10.086,10.086,0,0,0,2.36-6.64c0-5.13-6.76-8.75-9.37-8.75h-8.87a2.2,2.2,0,0,1-1.67-.79,2.876,2.876,0,0,1-.69-1.87,3.58,3.58,0,0,1,.69-2.17,2.342,2.342,0,0,1,1.86-.97h16.63v-6.46h-16.94a9.327,9.327,0,0,0-7.07,2.65,9.224,9.224,0,0,0-2.24,6.41,10.108,10.108,0,0,0,2.24,6.58,7.654,7.654,0,0,0,6.08,3.02h10.23a1.74,1.74,0,0,1,1.49.66,2.508,2.508,0,0,1,.62,1.75,3.328,3.328,0,0,1-.8,2.11,2.7,2.7,0,0,1-1.99.85h-16.38l-0.25-.42-6.14-19.2-0.31-.61a7.648,7.648,0,0,0-7.38-4.41,9.531,9.531,0,0,0-5.03,1.33,6.863,6.863,0,0,0-3.1,3.93l-8.25,25.84,7.51,0.06,7.57-23a1.222,1.222,0,0,1,1.17-1.09,1.065,1.065,0,0,1,.75.3,1.859,1.859,0,0,1,.37.79l7.63,23h7.07Zm-55.83-21.13v21.07H1005v-23.37c0-3.02.74-5.13,2.36-6.4a9.63,9.63,0,0,1,5.7-1.39,9.312,9.312,0,0,1,5.53,1.75,8.4,8.4,0,0,1,3.22,4.65l4.53,15.52,0.75,2.12a1.7,1.7,0,0,0,.55.96,1.031,1.031,0,0,0,1,.24,0.909,0.909,0,0,0,.93-0.96v-23.55h7.13v23.25a8.251,8.251,0,0,1-1.92,5.91,7.11,7.11,0,0,1-5.58,2.12,11.868,11.868,0,0,1-5.4-1.15,6.054,6.054,0,0,1-3.35-3.93l-5.21-17.69-0.38-1.14a2.249,2.249,0,0,0-.68-1.03,1.322,1.322,0,0,0-1.05-.24,1.219,1.219,0,0,0-.87.6,2.023,2.023,0,0,0-.31,1.09v1.57h0ZM1123,2658.21l-8.07-26.14-0.31-.61a7.639,7.639,0,0,0-7.38-4.41,9.5,9.5,0,0,0-5.02,1.33,6.879,6.879,0,0,0-3.11,3.93l-8.25,25.84,7.51,0.06,7.57-23a1.231,1.231,0,0,1,1.18-1.09,1.024,1.024,0,0,1,.74.3,1.748,1.748,0,0,1,.37.79l7.64,23H1123Z" transform="translate(-1005 -2627)"/>
</svg>
