<svg xmlns="http://www.w3.org/2000/svg" width="139" height="42" viewBox="0 0 139 42">
  <defs>
    <style>
      .cls-1 {
        fill: #162b3f;
        fill-rule: evenodd;
      }
    </style>
  </defs>
  <path class="cls-1" d="M782.913,2623c0.53,0.06,1.062.11,1.592,0.18a19.181,19.181,0,0,1,6.367,1.88,20.752,20.752,0,0,1,10.973,12.91,19,19,0,0,1,.862,6.81,20.73,20.73,0,0,1-11.14,17.82,18.783,18.783,0,0,1-7.587,2.3,20.353,20.353,0,0,1-15.188-4.56,20.574,20.574,0,0,1-7.468-12.83c-0.172-.99-0.19-2.01-0.281-3.02a2.04,2.04,0,0,0-.043-0.2v-0.6c0.015-.08.034-0.17,0.043-0.26,0.131-1.2.16-2.42,0.408-3.6a20.691,20.691,0,0,1,9.491-13.7,19.856,19.856,0,0,1,8.292-2.95c0.529-.07,1.06-0.12,1.589-0.18h2.09Zm-4.726,11.12c-0.772.05-2.2,0.12-3.625,0.24a27.721,27.721,0,0,0-5.634,1.08,1.945,1.945,0,1,0,1.1,3.73,29.228,29.228,0,0,1,7.313-1.11,37.845,37.845,0,0,1,7.665.46,27.829,27.829,0,0,1,6.282,1.68c0.987,0.41,1.947.9,2.893,1.4a1.947,1.947,0,1,0,2-3.34,23.934,23.934,0,0,0-4.035-1.91A40.508,40.508,0,0,0,778.187,2634.12Zm-0.487,7.23c-0.681.05-2.038,0.15-3.39,0.29a22.851,22.851,0,0,0-4.243.91,1.618,1.618,0,1,0,.957,3.09,25.555,25.555,0,0,1,7.109-1.03,29.192,29.192,0,0,1,4.572.34,24.213,24.213,0,0,1,9.053,3.15,1.614,1.614,0,1,0,1.642-2.78c-0.728-.42-1.466-0.84-2.229-1.2A31.1,31.1,0,0,0,777.7,2641.35Zm0.98,6.89c-0.457,0-.914-0.01-1.371.01a33.744,33.744,0,0,0-6.479.91,1.292,1.292,0,1,0,.56,2.52,35.081,35.081,0,0,1,5.859-.84,24.141,24.141,0,0,1,5.757.35,19.208,19.208,0,0,1,6.647,2.52,1.261,1.261,0,0,0,1.766-.43,1.278,1.278,0,0,0-.44-1.78c-0.336-.21-0.683-0.41-1.033-0.6A23.03,23.03,0,0,0,778.68,2648.24ZM900,2641.65a7.014,7.014,0,0,1-.276.78,2.258,2.258,0,0,1-2.639,1.17,2.3,2.3,0,0,1,.236-4.49,2.254,2.254,0,0,1,2.624,1.86,0.476,0.476,0,0,0,.055.13v0.55Zm-2.271-2.31a2.045,2.045,0,0,0-.048,4.09,2.022,2.022,0,0,0,2.026-2A1.975,1.975,0,0,0,897.729,2639.34Zm-19.464-.22H878.6c1.632,0,3.264.01,4.895-.01a0.508,0.508,0,0,1,.559.4q1.73,4.59,3.483,9.18c0.044,0.12.1,0.23,0.176,0.41,0.308-.88.594-1.69,0.877-2.5,0.832-2.4,1.667-4.79,2.492-7.19a0.364,0.364,0,0,1,.408-0.29c1.035,0.01,2.07,0,3.105,0,0.347,0,.439.13,0.317,0.44q-2.859,7.44-5.725,14.87a7.343,7.343,0,0,1-1.509,2.5,3.884,3.884,0,0,1-2.63,1.18,6.9,6.9,0,0,1-3.833-.77c-0.314-.17-0.347-0.25-0.2-0.57q0.477-1.065.961-2.13c0.145-.32.214-0.34,0.525-0.19a3.649,3.649,0,0,0,1.772.44,1.61,1.61,0,0,0,1.371-.91,0.878,0.878,0,0,0,.07-0.89q-2.183-5.205-4.324-10.43a0.364,0.364,0,0,0-.409-0.28q-1.194.015-2.388,0c-0.248-.01-0.318.07-0.317,0.32,0.008,3.52,0,7.03,0,10.55,0,0.5,0,.5-0.5.5H874.98c-0.368,0-.41-0.04-0.41-0.42v-10.95h-1.33c-0.429,0-.449-0.02-0.45-0.46,0-.8,0-1.61,0-2.41,0-.36.073-0.43,0.439-0.43,0.436-.01.871,0,1.312,0,0.029-.56.033-1.09,0.09-1.61a4.076,4.076,0,0,1,2-3.39,4.561,4.561,0,0,1,1.939-.54,8.773,8.773,0,0,1,3.1.33,0.362,0.362,0,0,1,.321.41c-0.011.83,0,1.65-.005,2.47,0,0.38-.087.41-0.459,0.33a11.3,11.3,0,0,0-1.724-.28,1.364,1.364,0,0,0-1.532,1.4C878.244,2638.49,878.265,2638.78,878.265,2639.12Zm-49.421,12.97v5.44c0,0.52-.014.53-0.543,0.53h-2.716c-0.408,0-.453-0.04-0.453-0.44v-18.1c0-.37.045-0.41,0.411-0.42h2.895c0.364,0.01.4,0.05,0.4,0.43,0,0.45,0,.89,0,1.4,0.093-.09.146-0.12,0.188-0.17a5.975,5.975,0,0,1,7.437-1.17,6.8,6.8,0,0,1,3.511,4.95,8.94,8.94,0,0,1-.48,5.36,6.432,6.432,0,0,1-5.412,4.11,5.69,5.69,0,0,1-5-1.73q-0.073-.075-0.15-0.15A0.354,0.354,0,0,0,828.844,2652.09Zm3.716-1.35a3.387,3.387,0,0,0,2.822-1.28,4.814,4.814,0,0,0,.48-5.28,3.612,3.612,0,0,0-6.179-.59,4.864,4.864,0,0,0-.057,5.61A3.624,3.624,0,0,0,832.56,2650.74Zm-16.127-16.48a10.321,10.321,0,0,1,6.6,2.2c0.4,0.3.4,0.34,0.119,0.74-0.494.7-.988,1.4-1.483,2.11-0.242.34-.3,0.35-0.642,0.09a8.665,8.665,0,0,0-3.541-1.63,4.436,4.436,0,0,0-2.915.26,1.822,1.822,0,0,0-1.02,2.14,1.45,1.45,0,0,0,.824,1.05,21.389,21.389,0,0,0,2.186.85c1.2,0.38,2.428.67,3.611,1.1a8.136,8.136,0,0,1,1.876,1.03,4.44,4.44,0,0,1,1.865,3.77,5.5,5.5,0,0,1-1.487,4.09,6.08,6.08,0,0,1-3.473,1.78,11.469,11.469,0,0,1-9.734-2.74c-0.3-.26-0.3-0.34-0.047-0.64l1.726-2.07c0.242-.29.313-0.3,0.605-0.05a8.776,8.776,0,0,0,4.022,2.12,6.014,6.014,0,0,0,3.15-.1,1.983,1.983,0,0,0,1.394-2.47,1.644,1.644,0,0,0-.735-0.95,9.861,9.861,0,0,0-2.58-.97c-1.2-.35-2.406-0.68-3.583-1.09a5.384,5.384,0,0,1-2.354-1.59,5.074,5.074,0,0,1-1.056-3.91,5.6,5.6,0,0,1,4.662-4.95,8.477,8.477,0,0,1,1-.16C815.755,2634.24,816.1,2634.26,816.433,2634.26Zm32.476,4.53a7.657,7.657,0,1,1-5.009,13.56,7.237,7.237,0,0,1-2.712-6.62,7.531,7.531,0,0,1,6.475-6.83C848.075,2638.84,848.494,2638.83,848.909,2638.79Zm4,7.7a4.579,4.579,0,0,0-.559-2.25,3.96,3.96,0,0,0-6.522-.68,4.568,4.568,0,0,0-.877,3.82,4,4,0,0,0,5.691,2.99A4.089,4.089,0,0,0,852.905,2646.49Zm9.435-4.11v6.55c0,0.1,0,.2.006,0.3a1.373,1.373,0,0,0,1.833,1.36,8,8,0,0,0,1.425-.4c0.33-.11.473-0.04,0.475,0.31,0,0.79,0,1.58,0,2.38a0.435,0.435,0,0,1-.27.44,5.762,5.762,0,0,1-3.376.65,5.836,5.836,0,0,1-1.754-.41,3.416,3.416,0,0,1-1.993-3.01,11.214,11.214,0,0,1-.06-1.32c-0.006-2.15,0-4.29,0-6.44v-0.41h-1.284c-0.491,0-.507-0.01-0.507-0.5,0-.77,0-1.54,0-2.32,0-.41.043-0.45,0.468-0.46h1.307c0.006-.13.015-0.23,0.015-0.34,0-1.05.007-2.1,0-3.15a0.329,0.329,0,0,1,.383-0.4q1.476,0.015,2.954,0a0.322,0.322,0,0,1,.383.39c-0.009,1.08,0,2.15-.009,3.22a0.234,0.234,0,0,0,.289.29c1.024-.01,2.049-0.01,3.073-0.01,0.387,0,.431.05,0.431,0.44,0,0.82-.006,1.64,0,2.46a0.324,0.324,0,0,1-.388.39c-1.015-.01-2.029-0.01-3.044-0.01h-0.36Zm5.256,4.04c0-2.28,0-4.57,0-6.85,0-.43.038-0.47,0.463-0.47H870.9c0.379,0,.428.06,0.428,0.44v13.77c0,0.4-.04.44-0.421,0.44h-2.9c-0.373,0-.41-0.04-0.41-0.41C867.6,2651.03,867.6,2648.73,867.6,2646.42Zm1.878-9.09a2.33,2.33,0,0,1-.015-4.66A2.33,2.33,0,1,1,869.474,2637.33Zm27.773,5.18H896.8v-2.38c0.43,0,.865-0.03,1.294,0a0.688,0.688,0,0,1,.661.59,0.734,0.734,0,0,1-.406.85,1.069,1.069,0,0,1-.1.06c0.2,0.28.389,0.56,0.585,0.84a0.479,0.479,0,0,1-.711-0.2,1.9,1.9,0,0,1-.185-0.27,0.5,0.5,0,0,0-.689-0.26v0.77Zm0.01-1.23a4.423,4.423,0,0,0,.756-0.06,0.448,0.448,0,0,0,.241-0.34,0.4,0.4,0,0,0-.243-0.3,3.777,3.777,0,0,0-.754-0.02v0.72Z" transform="translate(-761 -2623)"/>
</svg>
