<svg xmlns="http://www.w3.org/2000/svg" width="181" height="37" viewBox="0 0 181 37">
  <defs>
    <style>
      .cls-1 {
        fill: #162b3f;
        fill-rule: evenodd;
      }
    </style>
  </defs>
  <path class="cls-1" d="M618.788,2644.99v-3.84h-5.223V2637h4.755v-3.85h-4.755v-3.53h4.927v-3.84h-9.921v19.21h10.217Zm12.176-11.17v-2.95c0-3.92-2.215-5.55-5.907-5.55-3.963,0-5.81,1.94-5.81,6.12v7.89c0,3.92,1.552,6.12,5.539,6.12,4.431,0,6.253-2.3,6.253-5.61v-2.81h-4.994v2.2c0,1.18.067,2.72-.939,2.76-0.727.03-.89-0.64-0.89-1.71l0.025-9.51c0-1.25-.341-2.02,1.013-2,0.812,0,.717.85,0.717,2.49v2.56h4.993Zm5.723,11.2v-8.49l3,8.46h5.239l-3.365-9.62,3.78-9.59-5.184.02c0,0.08-3.388,8.65-3.388,8.65v-8.65l-4.762-.02v19.21l4.679,0.03h0Zm24.741-15.7c2.106-.18,1.709.48,1.7,2.39-0.007,1.17.375,2.32-.88,2.32h-0.816v-4.71h0Zm0,8.17h0.766c1.009,0.08.807,0.86,0.93,2.04s-0.123,5.1,0,5.46H668s0.123-4.67,0-6.21a2.361,2.361,0,0,0-1.817-2.5l-0.248-.25c1.822-.87,2.145-2.82,2.145-4.87,0-3.81-1.773-5.3-5.317-5.3h-6.327v19.13h4.994v-7.5h0Zm-59.494,7.5c1.329,0,2.7.23,3.835-.54a4.094,4.094,0,0,0,1.851-3.84v-9.86c0-1.85-.239-3.18-1.913-4.2-1.4-.85-3.33-0.77-4.906-0.77h-4.7v19.21h5.834Zm-1.089-15.76c1.558-.1,1.723.14,1.534,2.44v6.28c0.106,3.16.351,3.77-1.534,3.58v-12.3h0Zm55.036,15.76v-3.84h-5.222V2637h4.754v-3.85h-4.754v-3.53h4.926v-3.84h-9.92v19.21h10.216Zm-67.511-3.53c-0.321,2.02-2.121,1.59-3.565,1.59-3.153,0-3.082-1.14-2.991-3.94,0.045-1.4.666-2.83,1.409-3.02l5.147,5.37h0Zm3.561,3.44h2.481l-3.686-3.81v-5.69H588.8c0,0.42.018,3.27,0,3.69l-5.623-5.95c-1.136-1.17-.888-1.55-0.931-2.88-0.092-2.91,1.577-3.04,3.02-3.04,2,0,3.02.79,3.038,3.13l0.062,1.18,1.8-.03v-1.15c0-3.89-1.861-4.71-4.915-4.64-3.022.08-4.883,0.7-4.863,4.55,0.012,2.65.167,2.96,1.473,4.6-1.318.47-2,1.93-2.051,3.92-0.149,5.75,1.942,6.12,4.9,6.12,2.138,0,4.279-.07,5.333-1.94l1.887,1.94h0ZM673,2640.61a2.135,2.135,0,0,1,.639,1.56,2.181,2.181,0,0,1-.639,1.58,2.183,2.183,0,0,1-3.108,0,2.186,2.186,0,0,1-.636-1.58,2.135,2.135,0,0,1,.639-1.56,2.179,2.179,0,0,1,3.105,0h0Zm0.254-.25a2.462,2.462,0,0,0-1.809-.75,2.435,2.435,0,0,0-1.8.75,2.479,2.479,0,0,0-.748,1.81,2.508,2.508,0,0,0,.74,1.83,2.551,2.551,0,0,0,3.613,0,2.515,2.515,0,0,0,.747-1.83,2.47,2.47,0,0,0-.747-1.81h0Zm-1.429,1.69a1.148,1.148,0,0,1-.47.07h-0.445v-1.03h0.421a1.261,1.261,0,0,1,.6.11,0.432,0.432,0,0,1,.186.41,0.425,0.425,0,0,1-.288.44h0Zm-1.408,1.53h0.493v-1.12h0.39a1.187,1.187,0,0,1,.549.09,0.712,0.712,0,0,1,.264.65v0.23l0.01,0.09c0,0.01,0,.02.007,0.03s0,0.02.008,0.03H672.6l-0.017-.04a0.4,0.4,0,0,1-.025-0.15c0-.07-0.007-0.14-0.007-0.21v-0.2a0.8,0.8,0,0,0-.152-0.44,0.7,0.7,0,0,0-.484-0.28,0.994,0.994,0,0,0,.407-0.13,0.625,0.625,0,0,0,.274-0.56,0.7,0.7,0,0,0-.434-0.71,2.043,2.043,0,0,0-.765-0.11h-0.98v2.83h0Zm-130.478,1.35v-3.84h-4.384v-15.61h-4.791v19.45h9.175Zm3.58,0,0.493-3.74h1.647l0.587,3.74h4.795l-2.5-19.45h-6.958l-3.187,19.45h5.126Zm2.066-7.1h-1.652l0.661-5.49h0.413l0.578,5.49h0Zm17.272-4.33v-2.94c0-3.92-2.215-5.56-5.907-5.56-3.963,0-5.81,1.95-5.81,6.12v7.89c0,3.92,1.551,6.13,5.539,6.13,4.431,0,6.252-2.31,6.252-5.61v-2.82h-4.993v2.2c0,1.18.068,2.73-.939,2.77-0.728.03-.89-0.64-0.89-1.72l0.025-9.5c0-1.26-.341-2.03,1.013-2,0.812,0,.717.84,0.717,2.48v2.56h4.993Zm5.646,11.43v-8.46l3,8.46h5.239l-3.365-9.63,3.78-9.59-5.185.02c0,0.08-3.387,8.66-3.387,8.66v-8.66l-4.762-.02v19.22h4.68Zm-45.6-8.26c1.677-.16,1.946-0.03,2.007,2.43,0.066,2.67-.4,2.4-2.007,2.38v-4.81h0Zm0-7.68c1.455,0,2.073-.14,2.073,2.26,0,2-.331,2.2-2.048,2.13l-0.025-4.39h0Zm1.689,15.94c3.356,0,5.374-1.62,5.374-5.58,0-2.42-.4-3.46-2.276-4.66v-0.05a4.494,4.494,0,0,0,1.995-4.11c0-3.93-2.441-5.05-5.562-5.05h-6.011v19.45h6.48Zm-15-19.18-10.81,19.12H509.67l5.479-9.56-5.552-9.56h0Zm-11.21-.25h1.462l-6.15,10.7-0.7-1.26,5.388-9.44h0Zm2.862,0h1.4l-7.55,13.15-0.669-1.19,6.819-11.96h0Zm2.861,0h1.4l-8.981,15.67-0.73-1.23,8.31-14.44h0Zm2.831,0h1.432l-10.412,18.15-0.73-1.26,9.71-16.89h0Zm39.376,28.33,2.088,1.86,1.966,1.36a2.223,2.223,0,0,1,.86,1.86,1.884,1.884,0,0,1-2.088,2.1c-1.106,0-1.721-.25-1.966-0.87a3.482,3.482,0,0,1-.369-1.85H545.7q-0.185,3.705,3.318,3.71c2.089,0,3.2-1.12,3.2-3.34a3.09,3.09,0,0,0-.861-2.35l-3.809-2.48a1.973,1.973,0,0,1-.491-1.73c-0.123-1.24.614-1.86,2.089-1.86,1.351,0,1.966.87,1.966,2.48h1.106c0-2.35-.984-3.47-2.95-3.47-2.334,0-3.44.99-3.317,3.1l0.369,1.48h0Zm-3.686-4.33v7.67a7.282,7.282,0,0,1-.369,2.6,2.051,2.051,0,0,1-2.089,1.24,2.119,2.119,0,0,1-2.212-1.24l-0.369-2.6v-7.67h-1.105v8.42q0,4.08,3.686,4.08c2.334,0,3.44-1.36,3.44-4.08v-8.42h-0.982Zm-15.606,6.06a12.946,12.946,0,0,0,.492,4.46,3.567,3.567,0,0,0,6.389,0,24.964,24.964,0,0,0,.492-4.46,23.252,23.252,0,0,0-.492-4.33,3.567,3.567,0,0,0-6.389,0,12.132,12.132,0,0,0-.492,4.33h0Zm6.267,0a13.344,13.344,0,0,1-.369,3.96,2.386,2.386,0,0,1-4.423,0,13.344,13.344,0,0,1-.369-3.96,12.932,12.932,0,0,1,.369-3.83,2.386,2.386,0,0,1,4.423,0,12.932,12.932,0,0,1,.369,3.83h0Zm-9.584-6.06v5.44h-4.792v-5.44H517.81v12.25h1.106v-5.82h4.792v5.82h1.106V2649.5h-1.106Zm63.771,0v12.25h2.7c1.721,0,2.826-.49,3.441-1.48a9.95,9.95,0,0,0,.737-4.58,14.208,14.208,0,0,0-.491-4.71,3.588,3.588,0,0,0-3.318-1.48h-3.072Zm2.335,0.99c1.474,0,2.457.25,2.826,0.87a8.672,8.672,0,0,1,.737,3.58c0,2.6-.245,4.21-0.614,4.83s-1.475.99-3.072,0.99h-1.229v-10.27h1.352Zm10.567-.99v12.25h0.983v-5.69h2.089c1.843,0,2.826-1.24,2.826-3.59,0-1.98-.86-2.97-2.7-2.97h-3.2Zm2.949,0.99c1.351,0,1.966.74,1.966,2.23,0,1.61-.615,2.35-1.966,2.47h-1.966v-4.7h1.966Zm-25.927,5.07-0.368,3.96a2.387,2.387,0,0,1-4.424,0,13.391,13.391,0,0,1-.368-3.96,12.978,12.978,0,0,1,.368-3.83,2.387,2.387,0,0,1,4.424,0l0.368,3.83h0Zm0.615-4.33a3.568,3.568,0,0,0-6.39,0,10.005,10.005,0,0,0-.368,4.33,10.4,10.4,0,0,0,.368,4.46,3.568,3.568,0,0,0,6.39,0,12.927,12.927,0,0,0,.491-4.46,12.114,12.114,0,0,0-.491-4.33h0Zm-15.974-1.73v12.25h0.983v-5.82h4.792v5.82h1.106V2649.5h-1.106v5.44h-4.792v-5.44h-0.983Zm-1.966,0h-5.529v12.25H560.2v-0.99h-4.546v-4.83h4.177v-0.99h-4.177v-4.45h4.423v-0.99h0Zm20.643,0v12.25h5.038v-0.99H581.7V2649.5h-0.983Zm70.284,3.34c0-2.35-.983-3.59-3.072-3.59a2.879,2.879,0,0,0-3.072,1.98,11.665,11.665,0,0,0-.491,4.33,12.043,12.043,0,0,0,.491,4.46,2.879,2.879,0,0,0,3.072,1.98c2.089,0,3.2-1.24,3.2-3.84h-1.106c-0.123,1.86-.737,2.85-2.089,2.85a2.154,2.154,0,0,1-2.212-1.49,10.934,10.934,0,0,1-.245-3.96,10.474,10.474,0,0,1,.245-3.83,2.154,2.154,0,0,1,2.212-1.49c1.352,0,1.966.87,1.966,2.6h1.106Zm-15.851-3.34v8.42c0,2.72,1.229,4.08,3.563,4.08s3.441-1.36,3.441-4.08v-8.42h-1.106v7.67l-0.123,2.6a2.592,2.592,0,0,1-4.423,0,5.469,5.469,0,0,1-.246-2.6v-7.67h-1.106Zm-18.922,6.06a18.5,18.5,0,0,0,.368,4.46,3.126,3.126,0,0,0,3.195,1.98,3.287,3.287,0,0,0,3.317-1.98,18.438,18.438,0,0,0,.369-4.46,17.253,17.253,0,0,0-.369-4.33,3.287,3.287,0,0,0-3.317-1.98,3.126,3.126,0,0,0-3.195,1.98,17.315,17.315,0,0,0-.368,4.33h0Zm1.351-3.83a2.154,2.154,0,0,1,2.212-1.49,2.305,2.305,0,0,1,2.334,1.49,12.932,12.932,0,0,1,.369,3.83,13.344,13.344,0,0,1-.369,3.96,2.305,2.305,0,0,1-2.334,1.49,2.154,2.154,0,0,1-2.212-1.49,10.926,10.926,0,0,1-.246-3.96,10.468,10.468,0,0,1,.246-3.83h0Zm-6.389-1.24c1.228,0,1.843.62,1.843,1.98a2.931,2.931,0,0,1-.492,1.98l-1.843.49h-1.72v-4.45h2.212Zm-3.318-.99v12.25h1.106v-5.94h1.966a1.565,1.565,0,0,1,1.843,1.24l0.246,1.61,0.123,3.09h0.983v-1.48l-0.246-3.96a1.841,1.841,0,0,0-1.6-.87q1.842-.555,1.843-2.97a3.212,3.212,0,0,0-.615-2.23,2.949,2.949,0,0,0-2.334-.74h-3.318Zm17.94,0v12.25h2.826c1.72,0,2.826-.49,3.44-1.48a9.937,9.937,0,0,0,.737-4.58,13.407,13.407,0,0,0-.614-4.71c-0.491-.99-1.6-1.48-3.2-1.48h-3.194Zm2.457,0.99c1.475,0,2.458.25,2.949,0.87a7.348,7.348,0,0,1,.615,3.58c0,2.6-.246,4.21-0.615,4.83s-1.351.99-2.949,0.99h-1.352v-10.27h1.352Zm33.176,1.61q0-1.86,2.212-1.86c1.352,0,1.966.87,1.966,2.48h1.106c0-2.35-.983-3.47-3.072-3.47s-3.195.99-3.195,3.1a2.651,2.651,0,0,0,.369,1.48,4.538,4.538,0,0,0,2.089,1.86l2.089,1.36a4.172,4.172,0,0,1,.737,1.86c-0.123,1.36-.737,2.1-2.089,2.1a2.023,2.023,0,0,1-1.966-.87,3.482,3.482,0,0,1-.369-1.85H660.22q-0.185,3.705,3.318,3.71c2.089,0,3.195-1.12,3.318-3.34a3.731,3.731,0,0,0-.984-2.35l-3.808-2.48a2.452,2.452,0,0,1-.615-1.73h0Zm-2.458-2.6h-6.88v0.99h2.826v11.26h1.229v-11.26h2.825v-0.99h0Z" transform="translate(-493 -2625)"/>
</svg>
